<svg width="120" height="120" viewBox="0 0 120 120" fill="none" xmlns="http://www.w3.org/2000/svg">
<circle cx="60" cy="60" r="60" fill="#004AC6" fill-opacity="0.13"/>
<path d="M83.3438 42.75H37.2812C33.8122 42.75 31 45.5622 31 49.0312V78.3438C31 81.8128 33.8122 84.625 37.2812 84.625H83.3438C86.8128 84.625 89.625 81.8128 89.625 78.3438V49.0312C89.625 45.5622 86.8128 42.75 83.3438 42.75Z" stroke="#1D184C" stroke-width="4" stroke-linejoin="round"/>
<path d="M45.6562 42.75V38.5625C45.6562 37.4519 46.0974 36.3868 46.8827 35.6015C47.668 34.8162 48.7332 34.375 49.8438 34.375H70.7812C71.8918 34.375 72.957 34.8162 73.7423 35.6015C74.5276 36.3868 74.9688 37.4519 74.9688 38.5625V42.75M89.625 57.4062H31M68.6875 57.4062V60.5469C68.6875 60.8245 68.5772 61.0908 68.3809 61.2871C68.1846 61.4835 67.9183 61.5938 67.6406 61.5938H52.9844C52.7067 61.5938 52.4404 61.4835 52.2441 61.2871C52.0478 61.0908 51.9375 60.8245 51.9375 60.5469V57.4062" stroke="#1D184C" stroke-width="4" stroke-linecap="round" stroke-linejoin="round"/>
</svg>
