<svg width="15" height="13" viewBox="0 0 15 13" fill="none" xmlns="http://www.w3.org/2000/svg">
<path d="M7.49996 10.3958C8.38538 10.3958 9.1381 10.0861 9.75813 9.4665C10.3777 8.84647 10.6875 8.09375 10.6875 7.20833C10.6875 6.32292 10.3777 5.57019 9.75813 4.95017C9.1381 4.33061 8.38538 4.02083 7.49996 4.02083C6.61454 4.02083 5.86182 4.33061 5.24179 4.95017C4.62224 5.57019 4.31246 6.32292 4.31246 7.20833C4.31246 8.09375 4.62224 8.84647 5.24179 9.4665C5.86182 10.0861 6.61454 10.3958 7.49996 10.3958ZM7.49996 8.97917C7.00413 8.97917 6.58503 8.80799 6.24267 8.46562C5.90031 8.12326 5.72913 7.70417 5.72913 7.20833C5.72913 6.7125 5.90031 6.2934 6.24267 5.95104C6.58503 5.60868 7.00413 5.4375 7.49996 5.4375C7.99579 5.4375 8.41489 5.60868 8.75725 5.95104C9.09961 6.2934 9.27079 6.7125 9.27079 7.20833C9.27079 7.70417 9.09961 8.12326 8.75725 8.46562C8.41489 8.80799 7.99579 8.97917 7.49996 8.97917ZM1.83329 12.875C1.44371 12.875 1.11032 12.7364 0.833126 12.4592C0.555459 12.1815 0.416626 11.8479 0.416626 11.4583V2.95833C0.416626 2.56875 0.555459 2.23536 0.833126 1.95817C1.11032 1.6805 1.44371 1.54167 1.83329 1.54167H4.06454L5.37496 0.125H9.62496L10.9354 1.54167H13.1666C13.5562 1.54167 13.8898 1.6805 14.1675 1.95817C14.4447 2.23536 14.5833 2.56875 14.5833 2.95833V11.4583C14.5833 11.8479 14.4447 12.1815 14.1675 12.4592C13.8898 12.7364 13.5562 12.875 13.1666 12.875H1.83329ZM13.1666 11.4583V2.95833H10.2979L9.00517 1.54167H5.99475L4.70204 2.95833H1.83329V11.4583H13.1666Z" fill="#A52166"/>
</svg>
