<svg width="12" height="12" viewBox="0 0 12 12" fill="none" xmlns="http://www.w3.org/2000/svg">
<g clip-path="url(#clip0_495_6)">
<path d="M11.25 11.25H10.5V9.375C10.4994 8.8779 10.3017 8.40133 9.95017 8.04983C9.59867 7.69833 9.1221 7.5006 8.625 7.5V6.75C9.32095 6.75079 9.98817 7.02761 10.4803 7.51972C10.9724 8.01183 11.2492 8.67905 11.25 9.375V11.25ZM8.25 11.25H7.5V9.375C7.4994 8.8779 7.30167 8.40133 6.95017 8.04983C6.59867 7.69833 6.1221 7.5006 5.625 7.5H3.375C2.8779 7.5006 2.40133 7.69833 2.04983 8.04983C1.69833 8.40133 1.5006 8.8779 1.5 9.375V11.25H0.75V9.375C0.750794 8.67905 1.02761 8.01183 1.51972 7.51972C2.01183 7.02761 2.67905 6.75079 3.375 6.75H5.625C6.32095 6.75079 6.98817 7.02761 7.48028 7.51972C7.97239 8.01183 8.24921 8.67905 8.25 9.375V11.25ZM7.5 0.75V1.5C7.99728 1.5 8.47419 1.69754 8.82582 2.04917C9.17746 2.40081 9.375 2.87772 9.375 3.375C9.375 3.87228 9.17746 4.34919 8.82582 4.70083C8.47419 5.05246 7.99728 5.25 7.5 5.25V6C8.19619 6 8.86387 5.72344 9.35616 5.23116C9.84844 4.73887 10.125 4.07119 10.125 3.375C10.125 2.67881 9.84844 2.01113 9.35616 1.51884C8.86387 1.02656 8.19619 0.75 7.5 0.75ZM4.5 1.5C4.87084 1.5 5.23335 1.60997 5.54169 1.81599C5.85004 2.02202 6.09036 2.31486 6.23227 2.65747C6.37419 3.00008 6.41132 3.37708 6.33897 3.74079C6.26663 4.10451 6.08805 4.4386 5.82583 4.70083C5.5636 4.96305 5.22951 5.14163 4.86579 5.21397C4.50208 5.28632 4.12508 5.24919 3.78247 5.10727C3.43986 4.96536 3.14702 4.72504 2.94099 4.41669C2.73497 4.10835 2.625 3.74584 2.625 3.375C2.625 2.87772 2.82254 2.40081 3.17417 2.04917C3.52581 1.69754 4.00272 1.5 4.5 1.5ZM4.5 0.75C3.98082 0.75 3.47331 0.903954 3.04163 1.19239C2.60995 1.48083 2.2735 1.8908 2.07482 2.37046C1.87614 2.85011 1.82415 3.37791 1.92544 3.88711C2.02672 4.39631 2.27673 4.86404 2.64384 5.23116C3.01096 5.59827 3.47869 5.84828 3.98789 5.94956C4.49709 6.05085 5.02489 5.99886 5.50454 5.80018C5.9842 5.6015 6.39417 5.26505 6.68261 4.83337C6.97105 4.40169 7.125 3.89418 7.125 3.375C7.125 2.67881 6.84844 2.01113 6.35616 1.51884C5.86387 1.02656 5.19619 0.75 4.5 0.75Z" fill="#B3B7CD"/>
</g>
<defs>
<clipPath id="clip0_495_6">
<rect width="12" height="12" fill="white"/>
</clipPath>
</defs>
</svg>
