<svg width="13" height="13" viewBox="0 0 13 13" fill="none" xmlns="http://www.w3.org/2000/svg">
<path d="M5.625 7.625L4.26562 6.26562C4.15104 6.15104 4.01042 6.09375 3.84375 6.09375C3.67708 6.09375 3.53125 6.15625 3.40625 6.28125C3.29167 6.39583 3.23437 6.54167 3.23437 6.71875C3.23437 6.89583 3.29167 7.04167 3.40625 7.15625L5.1875 8.9375C5.30208 9.05208 5.44792 9.10937 5.625 9.10937C5.80208 9.10937 5.94792 9.05208 6.0625 8.9375L9.60937 5.39062C9.72396 5.27604 9.78125 5.13542 9.78125 4.96875C9.78125 4.80208 9.71875 4.65625 9.59375 4.53125C9.47917 4.41667 9.33333 4.35937 9.15625 4.35937C8.97917 4.35937 8.83333 4.41667 8.71875 4.53125L5.625 7.625ZM6.5 12.75C5.63542 12.75 4.82292 12.5858 4.0625 12.2575C3.30208 11.9296 2.64062 11.4844 2.07812 10.9219C1.51562 10.3594 1.07042 9.69792 0.7425 8.9375C0.414167 8.17708 0.25 7.36458 0.25 6.5C0.25 5.63542 0.414167 4.82292 0.7425 4.0625C1.07042 3.30208 1.51562 2.64062 2.07812 2.07812C2.64062 1.51562 3.30208 1.07021 4.0625 0.741875C4.82292 0.413958 5.63542 0.25 6.5 0.25C7.36458 0.25 8.17708 0.413958 8.9375 0.741875C9.69792 1.07021 10.3594 1.51562 10.9219 2.07812C11.4844 2.64062 11.9296 3.30208 12.2575 4.0625C12.5858 4.82292 12.75 5.63542 12.75 6.5C12.75 7.36458 12.5858 8.17708 12.2575 8.9375C11.9296 9.69792 11.4844 10.3594 10.9219 10.9219C10.3594 11.4844 9.69792 11.9296 8.9375 12.2575C8.17708 12.5858 7.36458 12.75 6.5 12.75Z" fill="black"/>
</svg>
