<svg width="69" height="15" viewBox="0 0 69 15" fill="none" xmlns="http://www.w3.org/2000/svg">
<g clip-path="url(#clip0_494_1170)">
<path d="M69 6.74304V5.51508H67.493V3.60626L67.4424 3.62194L66.0269 4.06022L65.9992 4.06881V5.51508H63.7652V4.70944C63.7652 4.33431 63.848 4.04713 64.0115 3.85581C64.1738 3.66654 64.4058 3.5704 64.7018 3.5704C64.9147 3.5704 65.1349 3.62113 65.3567 3.72108L65.4123 3.74617V2.45317L65.3861 2.44363C65.1793 2.36822 64.8979 2.33044 64.5492 2.33044C64.1096 2.33044 63.7103 2.42713 63.3619 2.61899C63.0187 2.80579 62.7358 3.08871 62.5473 3.4339C62.3559 3.78217 62.2589 4.18431 62.2589 4.6294V5.51522H61.2096V6.74317H62.2589V11.9159H63.7652V6.74304H65.9992V10.0302C65.9992 11.384 66.6301 12.0702 67.8748 12.0702C68.0899 12.0689 68.3043 12.0448 68.5144 11.9982C68.7381 11.9495 68.8904 11.9009 68.9802 11.8489L69 11.837V10.5978L68.9388 10.6388C68.857 10.694 68.7553 10.739 68.6359 10.7724C68.5159 10.8065 68.4158 10.8237 68.3383 10.8237C68.0467 10.8237 67.831 10.7442 67.6971 10.5873C67.5618 10.4291 67.493 10.1521 67.493 9.76485V6.74304H69ZM57.8457 10.8239C57.299 10.8239 56.868 10.6403 56.5641 10.2791C56.2586 9.91581 56.1036 9.39817 56.1036 8.74022C56.1036 8.06154 56.2586 7.5304 56.5644 7.16072C56.8683 6.79363 57.2952 6.60722 57.8335 6.60722C58.3557 6.60722 58.7714 6.78517 59.0693 7.13658C59.3686 7.48963 59.5205 8.01654 59.5205 8.70313C59.5205 9.39817 59.3776 9.93217 59.0959 10.2893C58.8163 10.6439 58.3957 10.8239 57.8457 10.8239ZM57.9128 5.36085C56.8697 5.36085 56.0412 5.67013 55.4507 6.28008C54.8603 6.89017 54.5609 7.73426 54.5609 8.78944C54.5609 9.79158 54.8531 10.5976 55.4294 11.1849C56.0056 11.7724 56.79 12.0699 57.7601 12.0699C58.7713 12.0699 59.5832 11.7564 60.1738 11.138C60.7641 10.5203 61.0632 9.68413 61.0632 8.65349C61.0632 7.63581 60.7825 6.82376 60.2288 6.2404C59.6746 5.65676 58.8953 5.36085 57.9128 5.36085ZM52.1322 5.36085C51.4227 5.36085 50.8358 5.54454 50.3874 5.90658C49.9365 6.27081 49.7076 6.74863 49.7076 7.32667C49.7076 7.62708 49.757 7.89394 49.8543 8.12031C49.952 8.34749 50.1033 8.5474 50.3044 8.71526C50.5038 8.88176 50.8118 9.05617 51.22 9.23344C51.5629 9.37635 51.8189 9.49731 51.9814 9.59249C52.1403 9.6859 52.2531 9.77972 52.3167 9.87108C52.3785 9.9604 52.4099 10.0829 52.4099 10.2338C52.4099 10.6639 52.0918 10.8731 51.4369 10.8731C51.194 10.8731 50.9169 10.8218 50.6134 10.7206C50.3121 10.6209 50.0277 10.475 49.7702 10.2879L49.7076 10.2427V11.7099L49.7305 11.7209C49.9437 11.8204 50.2125 11.9043 50.5292 11.9704C50.8453 12.0364 51.1324 12.0701 51.382 12.0701C52.1519 12.0701 52.7719 11.8856 53.2242 11.5214C53.6797 11.1545 53.9104 10.6657 53.9104 10.0674C53.9104 9.63613 53.7862 9.26604 53.5412 8.96767C53.2982 8.67176 52.8761 8.39999 52.2874 8.15985C51.8185 7.96935 51.5179 7.81131 51.3941 7.68994C51.2745 7.57267 51.2139 7.40685 51.2139 7.19699C51.2139 7.01072 51.2888 6.86167 51.4426 6.74085C51.5976 6.61949 51.8132 6.55772 52.0835 6.55772C52.3346 6.55772 52.5913 6.59781 52.8467 6.67635C53.102 6.75504 53.326 6.86044 53.5131 6.98917L53.5746 7.03172V5.63972L53.551 5.62949C53.3785 5.55449 53.1508 5.4904 52.8745 5.43858C52.599 5.38704 52.3493 5.36085 52.1322 5.36085ZM45.7807 10.8239C45.2341 10.8239 44.803 10.6403 44.4992 10.2791C44.1936 9.91581 44.039 9.39817 44.039 8.74022C44.039 8.06154 44.1937 7.5304 44.4996 7.16072C44.8032 6.79363 45.23 6.60722 45.7686 6.60722C46.2908 6.60722 46.7065 6.78517 47.0044 7.13658C47.3037 7.48963 47.4556 8.01654 47.4556 8.70313C47.4556 9.39817 47.3127 9.93217 47.031 10.2893C46.7513 10.6439 46.3308 10.8239 45.7807 10.8239ZM45.8479 5.36085C44.8046 5.36085 43.976 5.67013 43.3858 6.28008C42.7955 6.89017 42.4959 7.73426 42.4959 8.78944C42.4959 9.79199 42.7884 10.5976 43.3645 11.1849C43.9407 11.7724 44.7249 12.0699 45.6954 12.0699C46.7061 12.0699 47.5185 11.7564 48.109 11.138C48.6992 10.5203 48.9985 9.68413 48.9985 8.65349C48.9985 7.63581 48.7176 6.82376 48.1638 6.2404C47.6095 5.65676 46.8302 5.36085 45.8479 5.36085ZM40.2093 6.62358V5.51508H38.7214V11.9156H40.2092V8.64135C40.2092 8.08458 40.334 7.62722 40.5802 7.28181C40.8232 6.94049 41.1472 6.76744 41.5424 6.76744C41.6765 6.76744 41.8269 6.78981 41.9899 6.83413C42.1512 6.87804 42.268 6.92576 42.3369 6.97594L42.3994 7.0219V5.50417L42.3752 5.49367C42.2368 5.43408 42.0407 5.40408 41.7927 5.40408C41.4187 5.40408 41.0841 5.52558 40.7976 5.7649C40.546 5.97531 40.3641 6.26385 40.2251 6.62358H40.2093ZM36.0568 5.36085C35.3742 5.36085 34.7652 5.50908 34.2473 5.80104C33.7285 6.09354 33.327 6.51149 33.054 7.04263C32.7821 7.57267 32.6441 8.19176 32.6441 8.88217C32.6441 9.48681 32.778 10.0418 33.0424 10.5308C33.3071 11.0208 33.6817 11.4041 34.1558 11.67C34.6294 11.9355 35.1767 12.0701 35.7824 12.0701C36.4895 12.0701 37.0933 11.927 37.5775 11.645L37.5969 11.6336V10.2543L37.5345 10.3005C37.3118 10.4638 37.0665 10.593 36.8065 10.6839C36.5434 10.7768 36.3038 10.8237 36.0936 10.8237C35.5097 10.8237 35.0411 10.6389 34.7008 10.2746C34.3598 9.90954 34.1869 9.39722 34.1869 8.75235C34.1869 8.10354 34.3673 7.57799 34.7225 7.19004C35.0768 6.80344 35.5463 6.60735 36.1181 6.60735C36.6072 6.60735 37.0837 6.77494 37.5345 7.1059L37.5969 7.15172V5.69835L37.5768 5.6869C37.407 5.59076 37.1758 5.5114 36.8884 5.45126C36.6025 5.39126 36.3227 5.36085 36.0568 5.36085ZM31.6194 5.51508H30.1313V11.9156H31.6194V5.51508ZM30.8906 2.78849C30.6457 2.78849 30.4321 2.8729 30.2566 3.03994C30.0804 3.20767 29.9909 3.41876 29.9909 3.66776C29.9909 3.91294 30.0793 4.12008 30.2537 4.28331C30.4271 4.44599 30.6414 4.52849 30.8906 4.52849C31.1396 4.52849 31.3547 4.44599 31.5302 4.28358C31.7067 4.12008 31.7963 3.91294 31.7963 3.66776C31.7963 3.42749 31.7091 3.21844 31.5374 3.04676C31.3659 2.87535 31.1481 2.78849 30.8906 2.78849ZM27.178 5.04299V11.9154H28.6966V2.98444H26.5949L23.9235 9.61813L21.3311 2.98444H19.1439V11.9156H20.5709V5.04231H20.6199L23.3574 11.9156H24.4342L27.129 5.04285L27.178 5.04299Z" fill="#706D6E"/>
<path d="M6.99959 7.08259H0V0H6.99959V7.08259Z" fill="#F1511B"/>
<path d="M14.7281 7.08259H7.72855V0H14.7281V7.08259Z" fill="#80CC28"/>
<path d="M6.99946 14.9055H0V7.82294H6.99946V14.9055Z" fill="#00ADEF"/>
<path d="M14.7281 14.9055H7.72855V7.82294H14.7281V14.9055Z" fill="#FBBC09"/>
</g>
<defs>
<clipPath id="clip0_494_1170">
<rect width="69" height="15" fill="white"/>
</clipPath>
</defs>
</svg>
