<svg width="16" height="16" viewBox="0 0 16 16" fill="none" xmlns="http://www.w3.org/2000/svg">
<path fill-rule="evenodd" clip-rule="evenodd" d="M15.1386 1.80528C15.2006 1.7433 15.2498 1.66971 15.2833 1.58872C15.3169 1.50774 15.3341 1.42094 15.3341 1.33328C15.3341 1.24562 15.3169 1.15882 15.2833 1.07784C15.2498 0.99685 15.2006 0.923264 15.1386 0.86128C15.0766 0.799296 15.003 0.750128 14.9221 0.716583C14.8411 0.683037 14.7543 0.665771 14.6666 0.665771C14.579 0.665771 14.4922 0.683037 14.4112 0.716583C14.3302 0.750128 14.2566 0.799296 14.1946 0.86128L7.99995 7.05728L1.80528 0.86128C1.7433 0.799296 1.66971 0.750128 1.58872 0.716583C1.50774 0.683037 1.42094 0.665771 1.33328 0.665771C1.24562 0.665771 1.15882 0.683037 1.07784 0.716583C0.99685 0.750128 0.923264 0.799296 0.86128 0.86128C0.799296 0.923264 0.750128 0.99685 0.716583 1.07784C0.683037 1.15882 0.665771 1.24562 0.665771 1.33328C0.665771 1.42094 0.683037 1.50774 0.716583 1.58872C0.750128 1.66971 0.799296 1.7433 0.86128 1.80528L7.05728 7.99995L0.86128 14.1946C0.736098 14.3198 0.665771 14.4896 0.665771 14.6666C0.665771 14.8436 0.736098 15.0134 0.86128 15.1386C0.986462 15.2638 1.15625 15.3341 1.33328 15.3341C1.51031 15.3341 1.6801 15.2638 1.80528 15.1386L7.99995 8.94261L14.1946 15.1386C14.3198 15.2638 14.4896 15.3341 14.6666 15.3341C14.8436 15.3341 15.0134 15.2638 15.1386 15.1386C15.2638 15.0134 15.3341 14.8436 15.3341 14.6666C15.3341 14.4896 15.2638 14.3198 15.1386 14.1946L8.94261 7.99995L15.1386 1.80528Z" fill="#383838"/>
</svg>
