<svg width="10" height="10" viewBox="0 0 10 10" fill="none" xmlns="http://www.w3.org/2000/svg">
<path fill-rule="evenodd" clip-rule="evenodd" d="M8.99648 1.76321C9.04637 1.71339 9.08595 1.65422 9.11297 1.5891C9.13999 1.52398 9.15392 1.45418 9.15396 1.38367C9.15401 1.31317 9.14016 1.24335 9.11322 1.17819C9.08628 1.11304 9.04677 1.05383 8.99695 1.00394C8.94713 0.954058 8.88796 0.914475 8.82284 0.887454C8.75772 0.860434 8.68792 0.846504 8.61741 0.84646C8.54691 0.846417 8.47708 0.860261 8.41193 0.887202C8.34678 0.914143 8.28757 0.953653 8.23768 1.00348L4.99995 4.24121L1.76315 1.00348C1.6624 0.902729 1.52576 0.84613 1.38328 0.84613C1.2408 0.84613 1.10416 0.902729 1.00342 1.00348C0.902668 1.10422 0.846069 1.24087 0.846069 1.38334C0.846069 1.52582 0.902668 1.66246 1.00342 1.76321L4.24115 5.00001L1.00342 8.23681C0.95353 8.2867 0.91396 8.34592 0.886962 8.41109C0.859965 8.47627 0.846069 8.54613 0.846069 8.61668C0.846069 8.68722 0.859965 8.75708 0.886962 8.82226C0.91396 8.88743 0.95353 8.94666 1.00342 8.99654C1.10416 9.09729 1.2408 9.15389 1.38328 9.15389C1.45383 9.15389 1.52369 9.13999 1.58886 9.113C1.65404 9.086 1.71326 9.04643 1.76315 8.99654L4.99995 5.75881L8.23768 8.99654C8.33843 9.09717 8.47502 9.15365 8.61741 9.15356C8.7598 9.15347 8.89633 9.09682 8.99695 8.99608C9.09757 8.89533 9.15405 8.75874 9.15396 8.61635C9.15388 8.47396 9.09723 8.33743 8.99648 8.23681L5.75875 5.00001L8.99648 1.76321Z" fill="#EB4335"/>
</svg>
