<svg width="12" height="12" viewBox="0 0 12 12" fill="none" xmlns="http://www.w3.org/2000/svg">
<path d="M3 8.08575C3.111 9.336 4.13475 10.2233 5.69325 10.338V11.25H6.4755V10.338C8.178 10.2038 9.234 9.2595 9.234 7.863C9.234 6.6705 8.52375 5.9805 7.017 5.592L6.4755 5.45175V2.60025C7.317 2.68275 7.88475 3.13575 8.028 3.81225H9.1305C9.006 2.61225 7.9755 1.75125 6.4755 1.656V0.75H5.69325V1.67475C4.239 1.84725 3.24075 2.77875 3.24075 4.04175C3.24075 5.13225 3.96525 5.904 5.2365 6.2295L5.694 6.351V9.37425C4.83225 9.24675 4.239 8.77425 4.09575 8.08575H3ZM5.54325 5.20875C4.761 5.0115 4.34325 4.59 4.34325 3.99675C4.34325 3.28875 4.87125 2.766 5.69325 2.62575V5.247L5.54325 5.20875ZM6.7365 6.61275C7.70175 6.855 8.1255 7.257 8.1255 7.9395C8.1255 8.76225 7.506 9.3105 6.4755 9.39375V6.5475L6.7365 6.612V6.61275Z" fill="#B3B7CD"/>
</svg>
