<svg width="14" height="8" viewBox="0 0 14 8" fill="none" xmlns="http://www.w3.org/2000/svg">
<path d="M13.1264 1.84847L7.53169 7.50103C7.46509 7.56812 7.39284 7.61563 7.31495 7.64354C7.23706 7.6719 7.15355 7.68625 7.06442 7.68657C6.97529 7.6869 6.89168 7.67316 6.81358 7.64537C6.73549 7.61803 6.6629 7.57105 6.5958 7.50445L0.943189 1.89299C0.786638 1.73758 0.707935 1.54289 0.70708 1.30892C0.706225 1.07495 0.789053 0.874094 0.955565 0.70636C1.12208 0.538627 1.31675 0.454353 1.53958 0.453539C1.76241 0.452725 1.95769 0.535574 2.12542 0.702086L7.05679 5.59754L11.9522 0.666178C12.1077 0.509626 12.2994 0.430934 12.5276 0.4301C12.7562 0.429265 12.9544 0.512103 13.1222 0.678615C13.2899 0.845127 13.3742 1.0398 13.375 1.26263C13.3758 1.48546 13.2929 1.68074 13.1264 1.84847Z" fill="black"/>
</svg>
