<svg width="24" height="24" viewBox="0 0 24 24" fill="none" xmlns="http://www.w3.org/2000/svg">
<g clip-path="url(#clip0_494_1320)">
<path d="M18.3611 7.22217H14.1389V8.27772H18.3611V19.3611H14.1389V20.4166H19.4167V8.27772C19.4167 7.99777 19.3055 7.72929 19.1075 7.53133C18.9095 7.33338 18.6411 7.22217 18.3611 7.22217Z" fill="#CCCFE3"/>
<path d="M12.4922 4.58337H5.23C4.93326 4.58337 4.64866 4.70126 4.43883 4.91109C4.229 5.12092 4.11111 5.40552 4.11111 5.70226V20.4167H13.6111V5.70226C13.6111 5.40552 13.4932 5.12092 13.2834 4.91109C13.0736 4.70126 12.789 4.58337 12.4922 4.58337ZM12.5556 19.3612H10.9722V17.7778H6.75V19.3612H5.16667V5.70226C5.16667 5.69395 5.16831 5.68571 5.17149 5.67803C5.17467 5.67034 5.17934 5.66336 5.18522 5.65748C5.1911 5.6516 5.19808 5.64693 5.20577 5.64375C5.21345 5.64057 5.22169 5.63893 5.23 5.63893H12.4922C12.5005 5.63893 12.5088 5.64057 12.5165 5.64375C12.5241 5.64693 12.5311 5.6516 12.537 5.65748C12.5429 5.66336 12.5476 5.67034 12.5507 5.67803C12.5539 5.68571 12.5556 5.69395 12.5556 5.70226V19.3612Z" fill="#CCCFE3"/>
<path d="M6.22223 7.22217H7.27778V8.27772H6.22223V7.22217Z" fill="#CCCFE3"/>
<path d="M8.33334 7.22217H9.3889V8.27772H8.33334V7.22217Z" fill="#CCCFE3"/>
<path d="M10.4445 7.22217H11.5V8.27772H10.4445V7.22217Z" fill="#CCCFE3"/>
<path d="M6.22223 9.86108H7.27778V10.9166H6.22223V9.86108Z" fill="#CCCFE3"/>
<path d="M8.33334 9.86108H9.3889V10.9166H8.33334V9.86108Z" fill="#CCCFE3"/>
<path d="M10.4445 9.86108H11.5V10.9166H10.4445V9.86108Z" fill="#CCCFE3"/>
<path d="M6.22223 12.5H7.27778V13.5556H6.22223V12.5Z" fill="#CCCFE3"/>
<path d="M8.33334 12.5H9.3889V13.5556H8.33334V12.5Z" fill="#CCCFE3"/>
<path d="M10.4445 12.5H11.5V13.5556H10.4445V12.5Z" fill="#CCCFE3"/>
<path d="M6.22223 15.1389H7.27778V16.1945H6.22223V15.1389Z" fill="#CCCFE3"/>
<path d="M8.33334 15.1389H9.3889V16.1945H8.33334V15.1389Z" fill="#CCCFE3"/>
<path d="M10.4445 15.1389H11.5V16.1945H10.4445V15.1389Z" fill="#CCCFE3"/>
<path d="M14.1389 9.86108H15.1944V10.9166H14.1389V9.86108Z" fill="#CCCFE3"/>
<path d="M16.25 9.86108H17.3056V10.9166H16.25V9.86108Z" fill="#CCCFE3"/>
<path d="M14.1389 12.5H15.1944V13.5556H14.1389V12.5Z" fill="#CCCFE3"/>
<path d="M16.25 12.5H17.3056V13.5556H16.25V12.5Z" fill="#CCCFE3"/>
<path d="M14.1389 15.1389H15.1944V16.1945H14.1389V15.1389Z" fill="#CCCFE3"/>
<path d="M16.25 15.1389H17.3056V16.1945H16.25V15.1389Z" fill="#CCCFE3"/>
</g>
<rect x="0.25" y="0.25" width="23.5" height="23.5" rx="1.75" stroke="#CCCFE3" stroke-width="0.5"/>
<defs>
<clipPath id="clip0_494_1320">
<rect width="19" height="19" fill="white" transform="translate(2 3)"/>
</clipPath>
</defs>
</svg>
