<svg width="13" height="13" viewBox="0 0 13 13" fill="none" xmlns="http://www.w3.org/2000/svg">
<path d="M7.95917 4.38917L8.61083 5.04083L2.19333 11.4583H1.54167V10.8067L7.95917 4.38917ZM10.5092 0.125C10.3321 0.125 10.1479 0.195833 10.0133 0.330417L8.71708 1.62667L11.3733 4.28292L12.6696 2.98667C12.7352 2.92114 12.7873 2.8433 12.8229 2.75761C12.8584 2.67192 12.8767 2.58006 12.8767 2.48729C12.8767 2.39452 12.8584 2.30266 12.8229 2.21697C12.7873 2.13128 12.7352 2.05345 12.6696 1.98792L11.0121 0.330417C10.8704 0.18875 10.6933 0.125 10.5092 0.125ZM7.95917 2.38458L0.125 10.2188V12.875H2.78125L10.6154 5.04083L7.95917 2.38458Z" fill="#383838"/>
</svg>
