<svg width="12" height="12" viewBox="0 0 12 12" fill="none" xmlns="http://www.w3.org/2000/svg">
<path d="M10.0192 8.4285C11.295 7.29 12 6 12 6C12 6 9.74997 1.875 5.99997 1.875C5.27967 1.87748 4.56751 2.02757 3.90747 2.316L4.48497 2.89425C4.97055 2.71737 5.48318 2.62626 5.99997 2.625C7.58997 2.625 8.90922 3.501 9.87597 4.46775C10.3412 4.93552 10.7583 5.44885 11.121 6C11.0775 6.06525 11.0295 6.13725 10.9747 6.216C10.7235 6.576 10.3522 7.056 9.87597 7.53225C9.75222 7.656 9.62322 7.77825 9.48822 7.89675L10.0192 8.4285Z" fill="#9B9B9B"/>
<path d="M8.47277 6.88202C8.64014 6.4139 8.67113 5.90788 8.56215 5.42284C8.45317 4.93779 8.20869 4.49367 7.85716 4.14214C7.50563 3.79061 7.0615 3.54613 6.57646 3.43714C6.09141 3.32816 5.58539 3.35916 5.11727 3.52652L5.73452 4.14377C6.02275 4.10252 6.31663 4.12896 6.59287 4.22099C6.86912 4.31303 7.12012 4.46814 7.32601 4.67403C7.5319 4.87992 7.68701 5.13093 7.77905 5.40717C7.87109 5.68341 7.89753 5.97729 7.85627 6.26552L8.47277 6.88202ZM6.26552 7.85627L6.88202 8.47277C6.4139 8.64014 5.90788 8.67113 5.42284 8.56215C4.93779 8.45317 4.49367 8.20869 4.14214 7.85716C3.79061 7.50563 3.54613 7.0615 3.43714 6.57646C3.32816 6.09141 3.35916 5.58539 3.52652 5.11727L4.14377 5.73452C4.10252 6.02275 4.12896 6.31663 4.22099 6.59287C4.31303 6.86912 4.46814 7.12012 4.67403 7.32601C4.87992 7.5319 5.13093 7.68701 5.40717 7.77905C5.68341 7.87109 5.97729 7.89753 6.26552 7.85627Z" fill="#9B9B9B"/>
<path d="M2.5125 4.1025C2.3775 4.2225 2.24775 4.344 2.124 4.46775C1.65873 4.93551 1.24164 5.44884 0.879 6L1.02525 6.216C1.2765 6.576 1.64775 7.056 2.124 7.53225C3.09075 8.499 4.41075 9.375 6 9.375C6.537 9.375 7.0425 9.27525 7.515 9.105L8.0925 9.684C7.43245 9.97241 6.7203 10.1225 6 10.125C2.25 10.125 0 6 0 6C0 6 0.70425 4.70925 1.98075 3.5715L2.51175 4.10325L2.5125 4.1025ZM10.2345 10.7655L1.2345 1.7655L1.7655 1.2345L10.7655 10.2345L10.2345 10.7655Z" fill="#9B9B9B"/>
</svg>
