<svg width="12" height="12" viewBox="0 0 12 12" fill="none" xmlns="http://www.w3.org/2000/svg">
<path d="M11.5921 5.85C11.578 5.8125 11.1796 4.93125 10.2983 4.04531C9.12178 2.87344 7.63584 2.25 5.9999 2.25C4.36397 2.25 2.87803 2.87344 1.70147 4.04531C0.820217 4.93125 0.421779 5.8125 0.407717 5.85C0.386788 5.89724 0.375977 5.94833 0.375977 6C0.375977 6.05167 0.386788 6.10276 0.407717 6.15C0.421779 6.1875 0.820217 7.06875 1.70147 7.95469C2.87803 9.12656 4.36397 9.75 5.9999 9.75C7.63584 9.75 9.12178 9.12656 10.2983 7.95469C11.1796 7.06875 11.578 6.1875 11.5921 6.15C11.613 6.10276 11.6238 6.05167 11.6238 6C11.6238 5.94833 11.613 5.89724 11.5921 5.85ZM5.9999 9C4.55615 9 3.29522 8.475 2.25459 7.43906C1.82453 7.01552 1.45963 6.53056 1.17178 6C1.45924 5.46779 1.82415 4.98123 2.25459 4.55625C3.29522 3.525 4.55615 3 5.9999 3C7.44365 3 8.70459 3.525 9.74522 4.55625C10.1757 4.98123 10.5406 5.46779 10.828 6C10.4905 6.63281 9.01865 9 5.9999 9ZM5.9999 3.75C5.5549 3.75 5.11988 3.88196 4.74987 4.12919C4.37986 4.37643 4.09147 4.72783 3.92117 5.13896C3.75088 5.5501 3.70632 6.0025 3.79314 6.43895C3.87995 6.87541 4.09425 7.27632 4.40891 7.59099C4.72358 7.90566 5.12449 8.11995 5.56095 8.20677C5.99741 8.29358 6.44981 8.24903 6.86094 8.07873C7.27207 7.90843 7.62348 7.62004 7.87071 7.25003C8.11794 6.88002 8.2499 6.44501 8.2499 6C8.2499 5.40326 8.01285 4.83097 7.59089 4.40901C7.16894 3.98705 6.59664 3.75 5.9999 3.75ZM5.9999 7.5C5.70323 7.5 5.41322 7.41203 5.16655 7.2472C4.91987 7.08238 4.72762 6.84811 4.61408 6.57402C4.50055 6.29994 4.47085 5.99834 4.52873 5.70736C4.5866 5.41639 4.72946 5.14912 4.93924 4.93934C5.14902 4.72956 5.4163 4.5867 5.70727 4.52882C5.99824 4.47094 6.29984 4.50065 6.57393 4.61418C6.84802 4.72771 7.08229 4.91997 7.24711 5.16664C7.41193 5.41332 7.4999 5.70333 7.4999 6C7.49867 6.39744 7.34024 6.77826 7.0592 7.05929C6.77816 7.34033 6.39735 7.49876 5.9999 7.5Z" fill="#9B9B9B"/>
</svg>
