<svg width="12" height="12" viewBox="0 0 12 12" fill="none" xmlns="http://www.w3.org/2000/svg">
<path d="M5.18332 8.68317L9.29582 4.57067L8.47916 3.754L5.18332 7.04984L3.52082 5.38734L2.70416 6.204L5.18332 8.68317ZM5.99999 11.8332C5.19305 11.8332 4.43471 11.6799 3.72499 11.3735C3.01527 11.0674 2.39791 10.6519 1.87291 10.1269C1.34791 9.60192 0.932379 8.98456 0.626323 8.27484C0.319879 7.56511 0.166656 6.80678 0.166656 5.99984C0.166656 5.19289 0.319879 4.43456 0.626323 3.72484C0.932379 3.01512 1.34791 2.39775 1.87291 1.87275C2.39791 1.34775 3.01527 0.932032 3.72499 0.625587C4.43471 0.319532 5.19305 0.166504 5.99999 0.166504C6.80693 0.166504 7.56527 0.319532 8.27499 0.625587C8.98471 0.932032 9.60207 1.34775 10.1271 1.87275C10.6521 2.39775 11.0676 3.01512 11.3737 3.72484C11.6801 4.43456 11.8333 5.19289 11.8333 5.99984C11.8333 6.80678 11.6801 7.56511 11.3737 8.27484C11.0676 8.98456 10.6521 9.60192 10.1271 10.1269C9.60207 10.6519 8.98471 11.0674 8.27499 11.3735C7.56527 11.6799 6.80693 11.8332 5.99999 11.8332Z" fill="#34A853"/>
</svg>
