<svg width="13" height="13" viewBox="0 0 13 13" fill="none" xmlns="http://www.w3.org/2000/svg">
<path d="M8.4499 3.89995C8.4499 4.41712 8.24446 4.91311 7.87876 5.27881C7.51307 5.64451 7.01708 5.84995 6.4999 5.84995C5.98273 5.84995 5.48674 5.64451 5.12104 5.27881C4.75535 4.91311 4.5499 4.41712 4.5499 3.89995C4.5499 3.38278 4.75535 2.88679 5.12104 2.52109C5.48674 2.1554 5.98273 1.94995 6.4999 1.94995C7.01708 1.94995 7.51307 2.1554 7.87876 2.52109C8.24446 2.88679 8.4499 3.38278 8.4499 3.89995ZM11.6999 5.19995C11.6999 5.54473 11.5629 5.87539 11.3191 6.11919C11.0753 6.36299 10.7447 6.49995 10.3999 6.49995C10.0551 6.49995 9.72446 6.36299 9.48066 6.11919C9.23687 5.87539 9.0999 5.54473 9.0999 5.19995C9.0999 4.85517 9.23687 4.52451 9.48066 4.28071C9.72446 4.03691 10.0551 3.89995 10.3999 3.89995C10.7447 3.89995 11.0753 4.03691 11.3191 4.28071C11.5629 4.52451 11.6999 4.85517 11.6999 5.19995ZM9.0999 9.74995C9.0999 9.06039 8.82598 8.39907 8.33838 7.91147C7.85079 7.42388 7.18947 7.14995 6.4999 7.14995C5.81034 7.14995 5.14902 7.42388 4.66143 7.91147C4.17383 8.39907 3.8999 9.06039 3.8999 9.74995V11.7H9.0999V9.74995ZM3.8999 5.19995C3.8999 5.54473 3.76294 5.87539 3.51914 6.11919C3.27534 6.36299 2.94468 6.49995 2.5999 6.49995C2.25512 6.49995 1.92446 6.36299 1.68066 6.11919C1.43687 5.87539 1.2999 5.54473 1.2999 5.19995C1.2999 4.85517 1.43687 4.52451 1.68066 4.28071C1.92446 4.03691 2.25512 3.89995 2.5999 3.89995C2.94468 3.89995 3.27534 4.03691 3.51914 4.28071C3.76294 4.52451 3.8999 4.85517 3.8999 5.19995ZM10.3999 11.7V9.74995C10.4008 9.08909 10.233 8.43892 9.9124 7.86105C10.2006 7.7873 10.5018 7.78035 10.7931 7.84072C11.0843 7.90109 11.358 8.02719 11.5931 8.20939C11.8282 8.3916 12.0186 8.6251 12.1498 8.89209C12.2809 9.15907 12.3494 9.45249 12.3499 9.74995V11.7H10.3999ZM3.0874 7.86105C2.76679 8.43893 2.59899 9.08909 2.5999 9.74995V11.7H0.649903V9.74995C0.649777 9.45228 0.717804 9.15853 0.848768 8.89121C0.979732 8.62389 1.17016 8.39011 1.40545 8.20777C1.64075 8.02543 1.91466 7.89939 2.2062 7.83929C2.49775 7.77919 2.79918 7.78663 3.0874 7.86105Z" fill="#9B9B9B"/>
</svg>
