<svg width="120" height="120" viewBox="0 0 120 120" fill="none" xmlns="http://www.w3.org/2000/svg">
<circle cx="60" cy="60" r="60" fill="#004AC6" fill-opacity="0.13"/>
<g clip-path="url(#clip0_4031_420)">
<path d="M58.8853 28.6495C58.5127 28.3589 58.0537 28.2012 57.5812 28.2012C57.1087 28.2012 56.6497 28.3589 56.2771 28.6495L26.1001 52.18L28.7104 55.4812L32.4001 52.6042V78.6001C32.4023 79.7133 32.8455 80.7803 33.6327 81.5675C34.4199 82.3546 35.4869 82.7978 36.6001 82.8001H78.6001C79.7133 82.7978 80.7803 82.3546 81.5675 81.5675C82.3547 80.7803 82.7979 79.7133 82.8001 78.6001V52.6231L86.4898 55.5001L89.1001 52.1989L58.8853 28.6495ZM61.8001 78.6001H53.4001V61.8001H61.8001V78.6001ZM66.0001 78.6001V61.8001C65.999 60.6865 65.5561 59.6189 64.7687 58.8314C63.9813 58.044 62.9137 57.6012 61.8001 57.6001H53.4001C52.2865 57.6012 51.2189 58.044 50.4315 58.8314C49.6441 59.6189 49.2012 60.6865 49.2001 61.8001V78.6001H36.6001V49.3303L57.6001 32.9713L78.6001 49.3513V78.6001H66.0001Z" fill="#1D184C"/>
</g>
<defs>
<clipPath id="clip0_4031_420">
<rect width="67.2" height="67.2" fill="white" transform="translate(24 24)"/>
</clipPath>
</defs>
</svg>
