<svg width="120" height="120" viewBox="0 0 120 120" fill="none" xmlns="http://www.w3.org/2000/svg">
<circle cx="60" cy="60" r="60" fill="#004AC6" fill-opacity="0.13"/>
<g clip-path="url(#clip0_4031_438)">
<path d="M57.6 37.1997C49.5045 37.1997 42.9 43.8042 42.9 51.8997C42.9 56.8956 45.441 61.3161 49.2651 63.9747C40.6446 67.3389 34.5 75.7389 34.5 85.4997H38.7C38.7 76.2639 45.4011 68.5443 54.1875 66.9273L55.5 70.7997H59.7L61.0125 66.9273C69.7989 68.5443 76.5 76.2639 76.5 85.4997H80.7C80.7 75.7389 74.5554 67.3389 65.9349 63.9747C69.7569 61.3161 72.3 56.8956 72.3 51.8997C72.3 43.8042 65.6955 37.1997 57.6 37.1997ZM57.6 41.3997C63.4233 41.3997 68.1 46.0764 68.1 51.8997C68.1 57.723 63.4233 62.3997 57.6 62.3997C51.7767 62.3997 47.1 57.723 47.1 51.8997C47.1 46.0764 51.7767 41.3997 57.6 41.3997ZM55.5 72.8997L53.4 85.4997H61.8L59.7 72.8997H55.5Z" fill="#1D184C"/>
</g>
<defs>
<clipPath id="clip0_4031_438">
<rect width="67.2" height="67.2" fill="white" transform="translate(24 24)"/>
</clipPath>
</defs>
</svg>
