<svg width="24" height="25" viewBox="0 0 24 25" fill="none" xmlns="http://www.w3.org/2000/svg">
<g clip-path="url(#clip0_109_790)">
<path d="M23.9885 12.7338C23.9885 11.7095 23.9069 10.9621 23.7301 10.187H12.239V14.8099H18.984C18.8481 15.9588 18.1138 17.6889 16.4819 18.8515L16.459 19.0063L20.0923 21.8711L20.344 21.8966C22.6558 19.7236 23.9885 16.5262 23.9885 12.7338Z" fill="#4285F4"/>
<path d="M12.239 24.9142C15.5435 24.9142 18.3177 23.8069 20.344 21.8969L16.4819 18.8517C15.4484 19.5853 14.0612 20.0974 12.239 20.0974C9.00248 20.0974 6.25551 17.9244 5.27629 14.9209L5.13276 14.9333L1.35483 17.9092L1.30542 18.049C3.31804 22.1182 7.45214 24.9142 12.239 24.9142Z" fill="#34A853"/>
<path d="M5.27634 14.9209C5.01797 14.1458 4.86844 13.3153 4.86844 12.4572C4.86844 11.599 5.01797 10.7685 5.26275 9.99343L5.25591 9.82835L1.43062 6.80469L1.30547 6.86528C0.475969 8.55392 0 10.4502 0 12.4572C0 14.4641 0.475969 16.3603 1.30547 18.049L5.27634 14.9209Z" fill="#FBBC05"/>
<path d="M12.239 4.8167C14.5372 4.8167 16.0875 5.8271 16.9714 6.67147L20.4255 3.23884C18.3042 1.23187 15.5435 0 12.239 0C7.45214 0 3.31804 2.7959 1.30542 6.86517L5.2627 9.99332C6.25551 6.98979 9.00248 4.8167 12.239 4.8167Z" fill="#EB4335"/>
</g>
<defs>
<clipPath id="clip0_109_790">
<rect width="24" height="25" fill="white"/>
</clipPath>
</defs>
</svg>
