<svg width="14" height="14" viewBox="0 0 14 14" fill="none" xmlns="http://www.w3.org/2000/svg">
<path d="M8.93958 9.49375C8.83264 9.36736 8.77917 9.22386 8.77917 9.06325C8.77917 8.90303 8.83264 8.76944 8.93958 8.6625L10.0187 7.58333H5.83333C5.66806 7.58333 5.52961 7.52733 5.418 7.41533C5.306 7.30372 5.25 7.16528 5.25 7C5.25 6.83472 5.306 6.69608 5.418 6.58408C5.52961 6.47247 5.66806 6.41667 5.83333 6.41667H10.0187L8.93958 5.3375C8.82292 5.22083 8.76458 5.08239 8.76458 4.92217C8.76458 4.76156 8.82292 4.62292 8.93958 4.50625C9.04653 4.38958 9.18031 4.33125 9.34092 4.33125C9.50114 4.33125 9.63472 4.38472 9.74167 4.49167L11.8417 6.59167C11.9 6.65 11.9414 6.71319 11.9659 6.78125C11.99 6.84931 12.0021 6.92222 12.0021 7C12.0021 7.07778 11.99 7.15069 11.9659 7.21875C11.9414 7.28681 11.9 7.35 11.8417 7.40833L9.74167 9.50833C9.61528 9.63472 9.47683 9.69053 9.32633 9.67575C9.17544 9.66136 9.04653 9.60069 8.93958 9.49375ZM2.91667 12.25C2.59583 12.25 2.32108 12.1359 2.09242 11.9076C1.86414 11.6789 1.75 11.4042 1.75 11.0833V2.91667C1.75 2.59583 1.86414 2.32108 2.09242 2.09242C2.32108 1.86414 2.59583 1.75 2.91667 1.75H6.41667C6.58194 1.75 6.72058 1.80581 6.83258 1.91742C6.94419 2.02942 7 2.16806 7 2.33333C7 2.49861 6.94419 2.63706 6.83258 2.74867C6.72058 2.86067 6.58194 2.91667 6.41667 2.91667H2.91667V11.0833H6.41667C6.58194 11.0833 6.72058 11.1393 6.83258 11.2513C6.94419 11.3629 7 11.5014 7 11.6667C7 11.8319 6.94419 11.9704 6.83258 12.082C6.72058 12.194 6.58194 12.25 6.41667 12.25H2.91667Z" fill="#818181"/>
</svg>
