<svg width="102" height="22" viewBox="0 0 102 22" fill="none" xmlns="http://www.w3.org/2000/svg">
<g clip-path="url(#clip0_494_1344)">
<path d="M102 9.88983V8.08883H99.7723V5.28923L99.6974 5.31223L97.605 5.95503L97.564 5.96763V8.08883H94.2616V6.90723C94.2616 6.35703 94.3841 5.93583 94.6257 5.65523C94.8656 5.37763 95.2086 5.23663 95.6461 5.23663C95.9609 5.23663 96.2864 5.31103 96.6143 5.45763L96.6964 5.49443V3.59803L96.6578 3.58403C96.352 3.47343 95.936 3.41803 95.4206 3.41803C94.7708 3.41803 94.1805 3.55983 93.6655 3.84123C93.158 4.1152 92.7399 4.53015 92.4612 5.03643C92.1783 5.54723 92.0349 6.13703 92.0349 6.78983V8.08903H90.4838V9.89003H92.0349V17.4766H94.2616V9.88983H97.564V14.711C97.564 16.6966 98.4967 17.703 100.337 17.703C100.655 17.7012 100.972 17.6658 101.282 17.5974C101.613 17.526 101.838 17.4546 101.971 17.3784L102 17.361V15.5434L101.91 15.6036C101.789 15.6846 101.638 15.7506 101.462 15.7996C101.284 15.8496 101.136 15.8748 101.022 15.8748C100.591 15.8748 100.272 15.7582 100.074 15.528C99.8739 15.296 99.7723 14.8898 99.7723 14.3218V9.88983H102ZM85.5111 15.875C84.7028 15.875 84.0657 15.6058 83.6165 15.076C83.1649 14.5432 82.9358 13.784 82.9358 12.819C82.9358 11.8236 83.1649 11.0446 83.6169 10.5024C84.0661 9.96403 84.6973 9.69063 85.4929 9.69063C86.2649 9.69063 86.8795 9.95163 87.3198 10.467C87.7622 10.9848 87.9868 11.7576 87.9868 12.7646C87.9868 13.784 87.7756 14.5672 87.3592 15.091C86.9458 15.611 86.3241 15.875 85.5111 15.875ZM85.6103 7.86263C84.0683 7.86263 82.8435 8.31623 81.9705 9.21083C81.0978 10.1056 80.6553 11.3436 80.6553 12.8912C80.6553 14.361 81.0872 15.5432 81.9391 16.4046C82.7909 17.2662 83.9504 17.7026 85.3846 17.7026C86.8793 17.7026 88.0796 17.2428 88.9526 16.3358C89.8251 15.4298 90.2674 14.2034 90.2674 12.6918C90.2674 11.1992 89.8524 10.0082 89.0339 9.15263C88.2147 8.29663 87.0626 7.86263 85.6103 7.86263ZM77.065 7.86263C76.0161 7.86263 75.1485 8.13203 74.4857 8.66303C73.8191 9.19723 73.4808 9.89803 73.4808 10.7458C73.4808 11.1864 73.5538 11.5778 73.6976 11.9098C73.842 12.243 74.0658 12.5362 74.363 12.7824C74.6578 13.0266 75.113 13.2824 75.7165 13.5424C76.2235 13.752 76.6018 13.9294 76.8421 14.069C77.0769 14.206 77.2437 14.3436 77.3377 14.4776C77.4292 14.6086 77.4756 14.7882 77.4756 15.0096C77.4756 15.6404 77.0052 15.9472 76.0372 15.9472C75.678 15.9472 75.2684 15.872 74.8198 15.7236C74.3744 15.5774 73.954 15.3634 73.5733 15.089L73.4808 15.0226V17.1746L73.5147 17.1906C73.8299 17.3366 74.2271 17.4596 74.6953 17.5566C75.1627 17.6534 75.587 17.7028 75.9559 17.7028C77.0941 17.7028 78.0107 17.4322 78.6793 16.898C79.3526 16.36 79.6937 15.643 79.6937 14.7656C79.6937 14.133 79.51 13.5902 79.1478 13.1526C78.7886 12.7186 78.1647 12.32 77.2945 11.9678C76.6012 11.6884 76.157 11.4566 75.9739 11.2786C75.7972 11.1066 75.7075 10.8634 75.7075 10.5556C75.7075 10.2824 75.8183 10.0638 76.0456 9.88663C76.2747 9.70863 76.5934 9.61803 76.9931 9.61803C77.3642 9.61803 77.7437 9.67683 78.1212 9.79203C78.4986 9.90743 78.8297 10.062 79.1064 10.2508L79.1972 10.3132V8.27163L79.1624 8.25663C78.9074 8.14663 78.5707 8.05263 78.1623 7.97663C77.7551 7.90103 77.3859 7.86263 77.065 7.86263ZM67.6758 15.875C66.8678 15.875 66.2305 15.6058 65.7814 15.076C65.3296 14.5432 65.1011 13.784 65.1011 12.819C65.1011 11.8236 65.3298 11.0446 65.782 10.5024C66.2309 9.96403 66.8618 9.69063 67.6579 9.69063C68.4299 9.69063 69.0444 9.95163 69.4847 10.467C69.9272 10.9848 70.1517 11.7576 70.1517 12.7646C70.1517 13.784 69.9405 14.5672 69.5242 15.091C69.1106 15.611 68.489 15.875 67.6758 15.875ZM67.7752 7.86263C66.2329 7.86263 65.0081 8.31623 64.1355 9.21083C63.2629 10.1056 62.8201 11.3436 62.8201 12.8912C62.8201 14.3616 63.2524 15.5432 64.104 16.4046C64.9559 17.2662 66.1151 17.7026 67.5497 17.7026C69.0438 17.7026 70.2447 17.2428 71.1177 16.3358C71.9901 15.4298 72.4326 14.2034 72.4326 12.6918C72.4326 11.1992 72.0174 10.0082 71.1986 9.15263C70.3792 8.29663 69.2273 7.86263 67.7752 7.86263ZM59.4399 9.71463V8.08883H57.2403V17.4762H59.4397V12.674C59.4397 11.8574 59.6242 11.1866 59.9882 10.68C60.3473 10.1794 60.8263 9.92563 61.4106 9.92563C61.6088 9.92563 61.8311 9.95843 62.072 10.0234C62.3104 10.0878 62.4832 10.1578 62.585 10.2314L62.6774 10.2988V8.07283L62.6416 8.05743C62.437 7.97003 62.1471 7.92603 61.7805 7.92603C61.2277 7.92603 60.733 8.10423 60.3095 8.45523C59.9376 8.76383 59.6686 9.18703 59.4632 9.71463H59.4399ZM53.3014 7.86263C52.2923 7.86263 51.3921 8.08003 50.6265 8.50823C49.8595 8.93723 49.266 9.55023 48.8624 10.3292C48.4606 11.1066 48.2566 12.0146 48.2566 13.0272C48.2566 13.914 48.4544 14.728 48.8453 15.4452C49.2365 16.1638 49.7903 16.726 50.4912 17.116C51.1913 17.5054 52.0003 17.7028 52.8958 17.7028C53.9411 17.7028 54.8336 17.493 55.5494 17.0794L55.5781 17.0626V15.0396L55.4858 15.1074C55.1566 15.347 54.7939 15.5365 54.4096 15.6698C54.0208 15.806 53.6665 15.8748 53.3558 15.8748C52.4926 15.8748 51.7999 15.6038 51.2968 15.0694C50.7928 14.534 50.5372 13.7826 50.5372 12.8368C50.5372 11.8852 50.8038 11.1144 51.3289 10.5454C51.8527 9.97843 52.5467 9.69083 53.392 9.69083C54.115 9.69083 54.8194 9.93663 55.4858 10.422L55.5781 10.4892V8.35763L55.5484 8.34083C55.2973 8.19983 54.9555 8.08343 54.5308 7.99523C54.108 7.90723 53.6944 7.86263 53.3014 7.86263ZM46.7417 8.08883H44.5419V17.4762H46.7417V8.08883ZM45.6643 4.08983C45.3023 4.08983 44.9866 4.21363 44.7272 4.45863C44.4666 4.70463 44.3343 5.01423 44.3343 5.37943C44.3343 5.73903 44.465 6.04283 44.7228 6.28223C44.9792 6.52083 45.296 6.64183 45.6643 6.64183C46.0325 6.64183 46.3504 6.52083 46.6098 6.28263C46.8708 6.04283 47.0033 5.73903 47.0033 5.37943C47.0033 5.02703 46.8744 4.72043 46.6206 4.46863C46.367 4.21723 46.045 4.08983 45.6643 4.08983ZM40.1762 7.39643V17.476H42.421V4.37723H39.3142L35.3651 14.1066L31.5329 4.37723H28.2996V17.4762H30.4091V7.39543H30.4817L34.5284 17.4762H36.1202L40.1037 7.39623L40.1762 7.39643Z" fill="#706D6E"/>
<path d="M10.3472 10.3878H0V0H10.3472V10.3878Z" fill="#F1511B"/>
<path d="M21.772 10.3878H11.4248V0H21.772V10.3878Z" fill="#80CC28"/>
<path d="M10.347 21.8614H0V11.4736H10.347V21.8614Z" fill="#00ADEF"/>
<path d="M21.772 21.8614H11.4248V11.4736H21.772V21.8614Z" fill="#FBBC09"/>
</g>
<defs>
<clipPath id="clip0_494_1344">
<rect width="102" height="22" fill="white"/>
</clipPath>
</defs>
</svg>
