<svg width="120" height="120" viewBox="0 0 120 120" fill="none" xmlns="http://www.w3.org/2000/svg">
<circle cx="60" cy="60" r="60" fill="#004AC6" fill-opacity="0.13"/>
<g clip-path="url(#clip0_4031_425)">
<path d="M61.6687 61.8C59.8531 60.4437 57.8953 59.4047 55.7953 58.6828C53.6953 57.9609 51.4969 57.6 49.2 57.6C47.275 57.6 45.4156 57.8516 43.6219 58.3547C41.8281 58.8578 40.1547 59.5578 38.6016 60.4547C37.0484 61.3516 35.6375 62.4453 34.3687 63.7359C33.1 65.0266 32.0062 66.4484 31.0875 68.0016C30.1687 69.5547 29.4578 71.2281 28.9547 73.0219C28.4516 74.8156 28.2 76.675 28.2 78.6H24C24 75.975 24.3828 73.4484 25.1484 71.0203C25.9141 68.5922 27.0187 66.35 28.4625 64.2937C29.9062 62.2375 31.6125 60.4109 33.5812 58.8141C35.55 57.2172 37.7812 55.9594 40.275 55.0406C39.05 54.275 37.9562 53.3781 36.9937 52.35C36.0312 51.3219 35.2 50.1844 34.5 48.9375C33.8 47.6906 33.2859 46.3891 32.9578 45.0328C32.6297 43.6766 32.4437 42.2656 32.4 40.8C32.4 38.4812 32.8375 36.3047 33.7125 34.2703C34.5875 32.2359 35.7906 30.4641 37.3219 28.9547C38.8531 27.4453 40.6359 26.2422 42.6703 25.3453C44.7047 24.4484 46.8812 24 49.2 24C51.5187 24 53.6953 24.4375 55.7297 25.3125C57.7641 26.1875 59.5359 27.3906 61.0453 28.9219C62.5547 30.4531 63.7578 32.2359 64.6547 34.2703C65.5516 36.3047 66 38.4812 66 40.8C66 42.2437 65.825 43.6547 65.475 45.0328C65.125 46.4109 64.6 47.7125 63.9 48.9375C63.2 50.1625 62.3687 51.2891 61.4062 52.3172C60.4437 53.3453 59.3391 54.2531 58.0922 55.0406C59.4047 55.5437 60.6406 56.1344 61.8 56.8125V61.8H61.6687ZM36.6 40.8C36.6 42.55 36.9281 44.1797 37.5844 45.6891C38.2406 47.1984 39.1375 48.5328 40.275 49.6922C41.4125 50.8516 42.7469 51.7594 44.2781 52.4156C45.8094 53.0719 47.45 53.4 49.2 53.4C50.9281 53.4 52.5578 53.0719 54.0891 52.4156C55.6203 51.7594 56.9547 50.8625 58.0922 49.725C59.2297 48.5875 60.1375 47.2531 60.8156 45.7219C61.4937 44.1906 61.8219 42.55 61.8 40.8C61.8 39.0719 61.4719 37.4422 60.8156 35.9109C60.1594 34.3797 59.2625 33.0453 58.125 31.9078C56.9875 30.7703 55.6422 29.8625 54.0891 29.1844C52.5359 28.5062 50.9062 28.1781 49.2 28.2C47.45 28.2 45.8203 28.5281 44.3109 29.1844C42.8016 29.8406 41.4672 30.7375 40.3078 31.875C39.1484 33.0125 38.2406 34.3578 37.5844 35.9109C36.9281 37.4641 36.6 39.0937 36.6 40.8ZM91.2 66V91.2H57.6V66H66V57.6H82.8V66H91.2ZM70.2 66H78.6V61.8H70.2V66ZM87 78.6H82.8V82.8H78.6V78.6H70.2V82.8H66V78.6H61.8V87H87V78.6ZM87 70.2H61.8V74.4H87V70.2Z" fill="#1D184C"/>
</g>
<defs>
<clipPath id="clip0_4031_425">
<rect width="67.2" height="67.2" fill="white" transform="translate(24 24)"/>
</clipPath>
</defs>
</svg>
