<svg width="27" height="27" viewBox="0 0 27 27" fill="none" xmlns="http://www.w3.org/2000/svg">
<g filter="url(#filter0_d_1885_272)">
<circle cx="13.5" cy="13.5" r="9.5" fill="#CCCFE3"/>
</g>
<path d="M16.75 10.7917H10.25V8.625H16.75V10.7917ZM16.75 13.7708C16.9035 13.7708 17.032 13.7188 17.1357 13.6148C17.2397 13.5112 17.2917 13.3826 17.2917 13.2292C17.2917 13.0757 17.2397 12.947 17.1357 12.843C17.032 12.7393 16.9035 12.6875 16.75 12.6875C16.5965 12.6875 16.468 12.7393 16.3643 12.843C16.2603 12.947 16.2083 13.0757 16.2083 13.2292C16.2083 13.3826 16.2603 13.5112 16.3643 13.6148C16.468 13.7188 16.5965 13.7708 16.75 13.7708ZM15.6667 17.2917V15.125H11.3333V17.2917H15.6667ZM16.75 18.375H10.25V16.2083H8.08333V12.9583C8.08333 12.4979 8.24131 12.1121 8.55729 11.8008C8.87326 11.4892 9.25694 11.3333 9.70833 11.3333H17.2917C17.7521 11.3333 18.1381 11.4892 18.4497 11.8008C18.761 12.1121 18.9167 12.4979 18.9167 12.9583V16.2083H16.75V18.375Z" fill="#1D184C"/>
<defs>
<filter id="filter0_d_1885_272" x="0" y="0" width="27" height="27" filterUnits="userSpaceOnUse" color-interpolation-filters="sRGB">
<feFlood flood-opacity="0" result="BackgroundImageFix"/>
<feColorMatrix in="SourceAlpha" type="matrix" values="0 0 0 0 0 0 0 0 0 0 0 0 0 0 0 0 0 0 127 0" result="hardAlpha"/>
<feOffset/>
<feGaussianBlur stdDeviation="2"/>
<feComposite in2="hardAlpha" operator="out"/>
<feColorMatrix type="matrix" values="0 0 0 0 0 0 0 0 0 0 0 0 0 0 0 0 0 0 0.13 0"/>
<feBlend mode="normal" in2="BackgroundImageFix" result="effect1_dropShadow_1885_272"/>
<feBlend mode="normal" in="SourceGraphic" in2="effect1_dropShadow_1885_272" result="shape"/>
</filter>
</defs>
</svg>
