<svg width="22" height="22" viewBox="0 0 22 22" fill="none" xmlns="http://www.w3.org/2000/svg">
<path d="M10.0833 9.30415L9.25833 8.50206C9.075 8.33401 8.85713 8.25365 8.60474 8.26098C8.35297 8.26892 8.14305 8.35692 7.97499 8.52498C7.80694 8.69304 7.72291 8.90692 7.72291 9.16665C7.72291 9.42637 7.80694 9.64026 7.97499 9.80831L10.3583 12.1916C10.5264 12.3597 10.7403 12.4437 11 12.4437C11.2597 12.4437 11.4736 12.3597 11.6417 12.1916L14.0479 9.7854C14.216 9.61734 14.2963 9.40712 14.289 9.15473C14.2811 8.90295 14.1931 8.69304 14.025 8.52498C13.8569 8.35692 13.6431 8.26892 13.3833 8.26098C13.1236 8.25365 12.9097 8.34165 12.7417 8.52498L11.9167 9.30415V6.39373C11.9167 6.13401 11.829 5.92012 11.6536 5.75206C11.4776 5.58401 11.2597 5.49998 11 5.49998C10.7403 5.49998 10.5227 5.58767 10.3473 5.76306C10.1713 5.93906 10.0833 6.15692 10.0833 6.41665V9.30415ZM7.33333 15.5833H14.6896C14.9493 15.5833 15.1632 15.4953 15.3312 15.3193C15.4993 15.1439 15.5833 14.9264 15.5833 14.6666C15.5833 14.4069 15.4953 14.1891 15.3193 14.0131C15.1439 13.8377 14.9264 13.75 14.6667 13.75H7.31041C7.05069 13.75 6.8368 13.8377 6.66875 14.0131C6.50069 14.1891 6.41666 14.4069 6.41666 14.6666C6.41666 14.9264 6.50436 15.1439 6.67975 15.3193C6.85575 15.4953 7.07361 15.5833 7.33333 15.5833ZM11 20.1666C9.73194 20.1666 8.54027 19.9259 7.425 19.4443C6.30972 18.9634 5.33958 18.3104 4.51458 17.4854C3.68958 16.6604 3.03661 15.6903 2.55566 14.575C2.07411 13.4597 1.83333 12.268 1.83333 11C1.83333 9.73192 2.07411 8.54026 2.55566 7.42498C3.03661 6.3097 3.68958 5.33956 4.51458 4.51456C5.33958 3.68956 6.30972 3.03629 7.425 2.55473C8.54027 2.07379 9.73194 1.83331 11 1.83331C12.2681 1.83331 13.4597 2.07379 14.575 2.55473C15.6903 3.03629 16.6604 3.68956 17.4854 4.51456C18.3104 5.33956 18.9634 6.3097 19.4443 7.42498C19.9259 8.54026 20.1667 9.73192 20.1667 11C20.1667 12.268 19.9259 13.4597 19.4443 14.575C18.9634 15.6903 18.3104 16.6604 17.4854 17.4854C16.6604 18.3104 15.6903 18.9634 14.575 19.4443C13.4597 19.9259 12.2681 20.1666 11 20.1666Z" fill="#CCCFE3"/>
</svg>
