<svg width="12" height="12" viewBox="0 0 12 12" fill="none" xmlns="http://www.w3.org/2000/svg">
<path d="M6 3.25C6.33152 3.25 6.64946 3.3817 6.88388 3.61612C7.1183 3.85054 7.25 4.16848 7.25 4.5C7.25 4.66415 7.21767 4.8267 7.15485 4.97835C7.09203 5.13001 6.99996 5.26781 6.88388 5.38388C6.76781 5.49996 6.63001 5.59203 6.47835 5.65485C6.3267 5.71767 6.16415 5.75 6 5.75C5.66848 5.75 5.35054 5.6183 5.11612 5.38388C4.8817 5.14946 4.75 4.83152 4.75 4.5C4.75 4.16848 4.8817 3.85054 5.11612 3.61612C5.35054 3.3817 5.66848 3.25 6 3.25ZM6 1C6.92826 1 7.8185 1.36875 8.47487 2.02513C9.13125 2.6815 9.5 3.57174 9.5 4.5C9.5 7.125 6 11 6 11C6 11 2.5 7.125 2.5 4.5C2.5 3.57174 2.86875 2.6815 3.52513 2.02513C4.1815 1.36875 5.07174 1 6 1ZM6 2C5.33696 2 4.70107 2.26339 4.23223 2.73223C3.76339 3.20107 3.5 3.83696 3.5 4.5C3.5 5 3.5 6 6 9.355C8.5 6 8.5 5 8.5 4.5C8.5 3.83696 8.23661 3.20107 7.76777 2.73223C7.29893 2.26339 6.66304 2 6 2Z" fill="#B3B7CD"/>
</svg>
