<svg width="120" height="120" viewBox="0 0 120 120" fill="none" xmlns="http://www.w3.org/2000/svg">
<circle cx="60" cy="60" r="60" fill="#004AC6" fill-opacity="0.13"/>
<path d="M59.5998 59.6C61.1462 59.6 62.3998 58.3464 62.3998 56.8C62.3998 55.2536 61.1462 54 59.5998 54C58.0534 54 56.7998 55.2536 56.7998 56.8C56.7998 58.3464 58.0534 59.6 59.5998 59.6Z" stroke="#1D184C" stroke-width="4" stroke-linecap="round" stroke-linejoin="round"/>
<path d="M48.4001 65.1998C46.8401 63.1198 45.8902 60.6465 45.6567 58.0571C45.4232 55.4676 45.9154 52.8643 47.0781 50.5388C48.2409 48.2133 50.0282 46.2576 52.2399 44.8907C54.4515 43.5238 57.0001 42.7998 59.6001 42.7998C62.2001 42.7998 64.7487 43.5238 66.9603 44.8907C69.172 46.2576 70.9593 48.2133 72.1221 50.5388C73.2848 52.8643 73.777 55.4676 73.5435 58.0571C73.31 60.6465 72.3601 63.1198 70.8001 65.1998M56.8001 73.5998C56.8001 72.8572 57.0951 72.145 57.6202 71.6199C58.1453 71.0948 58.8575 70.7998 59.6001 70.7998C60.3427 70.7998 61.0549 71.0948 61.58 71.6199C62.1051 72.145 62.4001 72.8572 62.4001 73.5998C62.4001 74.9998 61.4481 81.9998 61.0001 86.1998C61.0001 86.5711 60.8526 86.9272 60.5901 87.1898C60.3275 87.4523 59.9714 87.5998 59.6001 87.5998C59.2288 87.5998 58.8727 87.4523 58.6102 87.1898C58.3476 86.9272 58.2001 86.5711 58.2001 86.1998C57.7521 81.9998 56.8001 74.9998 56.8001 73.5998Z" stroke="#1D184C" stroke-width="4" stroke-linecap="round" stroke-linejoin="round"/>
<path d="M73.5999 77.7998C78.0951 74.7963 81.5053 70.4267 83.3267 65.3364C85.1481 60.2462 85.2842 54.7051 83.7149 49.5315C82.1455 44.358 78.954 39.8263 74.6116 36.6057C70.2692 33.3852 65.0062 31.6465 59.5999 31.6465C54.1936 31.6465 48.9306 33.3852 44.5882 36.6057C40.2458 39.8263 37.0543 44.358 35.4849 49.5315C33.9156 54.7051 34.0517 60.2462 35.8731 65.3364C37.6945 70.4267 41.1047 74.7963 45.5999 77.7998" stroke="#1D184C" stroke-width="4" stroke-linecap="round" stroke-linejoin="round"/>
</svg>
