<svg width="20" height="20" viewBox="0 0 20 20" fill="none" xmlns="http://www.w3.org/2000/svg">
<circle cx="10" cy="10" r="10" fill="#028224"/>
<path d="M13.6738 10.6124H10.6126V13.6736C10.6126 13.836 10.5481 13.9917 10.4332 14.1065C10.3184 14.2213 10.1627 14.2858 10.0003 14.2858C9.83794 14.2858 9.68221 14.2213 9.56739 14.1065C9.45257 13.9917 9.38807 13.836 9.38807 13.6736V10.6124H6.32684C6.16447 10.6124 6.00874 10.5479 5.89392 10.4331C5.7791 10.3182 5.7146 10.1625 5.7146 10.0001C5.7146 9.83775 5.7791 9.68203 5.89392 9.56721C6.00874 9.45239 6.16447 9.38789 6.32684 9.38789H9.38807V6.32666C9.38807 6.16428 9.45257 6.00856 9.56739 5.89374C9.68221 5.77892 9.83794 5.71442 10.0003 5.71442C10.1627 5.71442 10.3184 5.77892 10.4332 5.89374C10.5481 6.00856 10.6126 6.16428 10.6126 6.32666V9.38789H13.6738C13.8362 9.38789 13.9919 9.45239 14.1067 9.56721C14.2215 9.68203 14.286 9.83775 14.286 10.0001C14.286 10.1625 14.2215 10.3182 14.1067 10.4331C13.9919 10.5479 13.8362 10.6124 13.6738 10.6124Z" fill="white"/>
</svg>
