<svg width="17" height="17" viewBox="0 0 17 17" fill="none" xmlns="http://www.w3.org/2000/svg">
<path d="M6.91665 2.95833H10.0833C10.0833 2.53841 9.9165 2.13568 9.61957 1.83875C9.32263 1.54182 8.91991 1.375 8.49998 1.375C8.08005 1.375 7.67733 1.54182 7.38039 1.83875C7.08346 2.13568 6.91665 2.53841 6.91665 2.95833ZM5.72915 2.95833C5.72915 2.59446 5.80082 2.23415 5.94006 1.89798C6.07931 1.56181 6.28341 1.25635 6.5407 0.999058C6.798 0.741763 7.10345 0.537665 7.43963 0.398417C7.7758 0.25917 8.13611 0.1875 8.49998 0.1875C8.86385 0.1875 9.22416 0.25917 9.56033 0.398417C9.8965 0.537665 10.202 0.741763 10.4593 0.999058C10.7165 1.25635 10.9206 1.56181 11.0599 1.89798C11.1991 2.23415 11.2708 2.59446 11.2708 2.95833H15.8229C15.9804 2.95833 16.1314 3.02089 16.2427 3.13224C16.3541 3.24359 16.4166 3.39461 16.4166 3.55208C16.4166 3.70956 16.3541 3.86058 16.2427 3.97193C16.1314 4.08328 15.9804 4.14583 15.8229 4.14583H14.7779L13.8516 13.7337C13.7806 14.4684 13.4384 15.1502 12.8919 15.6462C12.3454 16.1423 11.6336 16.4169 10.8956 16.4167H6.1044C5.36646 16.4167 4.65493 16.142 4.10856 15.646C3.56219 15.15 3.22014 14.4682 3.1491 13.7337L2.22206 4.14583H1.17706C1.01959 4.14583 0.868568 4.08328 0.757218 3.97193C0.645869 3.86058 0.583313 3.70956 0.583313 3.55208C0.583313 3.39461 0.645869 3.24359 0.757218 3.13224C0.868568 3.02089 1.01959 2.95833 1.17706 2.95833H5.72915ZM7.31248 6.71875C7.31248 6.56128 7.24992 6.41026 7.13857 6.29891C7.02722 6.18756 6.8762 6.125 6.71873 6.125C6.56126 6.125 6.41023 6.18756 6.29888 6.29891C6.18754 6.41026 6.12498 6.56128 6.12498 6.71875V12.6563C6.12498 12.8137 6.18754 12.9647 6.29888 13.0761C6.41023 13.1874 6.56126 13.25 6.71873 13.25C6.8762 13.25 7.02722 13.1874 7.13857 13.0761C7.24992 12.9647 7.31248 12.8137 7.31248 12.6563V6.71875ZM10.2812 6.125C10.4387 6.125 10.5897 6.18756 10.7011 6.29891C10.8124 6.41026 10.875 6.56128 10.875 6.71875V12.6563C10.875 12.8137 10.8124 12.9647 10.7011 13.0761C10.5897 13.1874 10.4387 13.25 10.2812 13.25C10.1238 13.25 9.97273 13.1874 9.86138 13.0761C9.75004 12.9647 9.68748 12.8137 9.68748 12.6563V6.71875C9.68748 6.56128 9.75004 6.41026 9.86138 6.29891C9.97273 6.18756 10.1238 6.125 10.2812 6.125ZM4.33106 13.6197C4.37376 14.0604 4.57905 14.4694 4.9069 14.7669C5.23474 15.0645 5.66165 15.2293 6.1044 15.2292H10.8956C11.3383 15.2293 11.7652 15.0645 12.0931 14.7669C12.4209 14.4694 12.6262 14.0604 12.6689 13.6197L13.5856 4.14583H3.41431L4.33106 13.6197Z" fill="#898A8D"/>
</svg>
