<svg width="185" height="162" viewBox="0 0 185 162" fill="none" xmlns="http://www.w3.org/2000/svg">
<path d="M92 20.5C89.4659 20.5 86.9888 21.2514 84.8818 22.6593C82.7748 24.0672 81.1325 26.0682 80.1628 28.4094C79.1931 30.7505 78.9393 33.3267 79.4337 35.8121C79.9281 38.2975 81.1483 40.5804 82.9402 42.3723C84.7321 44.1642 87.015 45.3844 89.5004 45.8788C91.9858 46.3732 94.562 46.1195 96.9031 45.1497C99.2443 44.18 101.245 42.5377 102.653 40.4307C104.061 38.3237 104.813 35.8466 104.813 33.3125C104.813 29.9144 103.463 26.6555 101.06 24.2527C98.657 21.8499 95.3981 20.5 92 20.5Z" fill="#EAEAEA"/>
<path d="M92 5.125C84.9046 5.125 77.9685 7.22903 72.0689 11.171C66.1693 15.113 61.5711 20.7159 58.8558 27.2712C56.1405 33.8265 55.4301 41.0398 56.8143 47.9989C58.1986 54.9579 61.6154 61.3502 66.6326 66.3675C71.6498 71.3847 78.0421 74.8014 85.0012 76.1857C91.9602 77.5699 99.1735 76.8595 105.729 74.1442C112.284 71.4289 117.887 66.8307 121.829 60.9311C125.771 55.0315 127.875 48.0954 127.875 41C127.864 31.4887 124.081 22.37 117.355 15.6445C110.63 8.91901 101.511 5.13585 92 5.125ZM112.48 63.8729C112.428 60.5117 111.059 57.3052 108.666 54.9441C106.274 52.583 103.049 51.2563 99.6875 51.25H84.3125C80.951 51.2563 77.7265 52.583 75.3337 54.9441C72.941 57.3052 71.5716 60.5117 71.5205 63.8729C66.8736 59.7235 63.5966 54.2606 62.1234 48.2075C60.6502 42.1543 61.0504 35.7964 63.2709 29.9758C65.4914 24.1551 69.4275 19.1461 74.558 15.6122C79.6885 12.0783 85.7715 10.186 92.0013 10.186C98.2311 10.186 104.314 12.0783 109.445 15.6122C114.575 19.1461 118.511 24.1551 120.732 29.9758C122.952 35.7964 123.352 42.1543 121.879 48.2075C120.406 54.2606 117.129 59.7235 112.482 63.8729H112.48Z" fill="#EAEAEA"/>
<rect y="108" width="184" height="5" fill="#EAEAEA"/>
<rect y="120" width="138" height="5" fill="#EAEAEA"/>
<rect y="132" width="113" height="5" fill="#EAEAEA"/>
<rect x="125" y="132" width="59" height="5" fill="#EAEAEA"/>
<rect x="72" y="145" width="113" height="5" fill="#EAEAEA"/>
<rect y="145" width="59" height="5" fill="#EAEAEA"/>
<rect y="157" width="84" height="5" fill="#EAEAEA"/>
</svg>
