<svg width="8" height="12" viewBox="0 0 8 12" fill="none" xmlns="http://www.w3.org/2000/svg">
<path d="M1.1709 11.3083C1.02507 11.1624 0.952148 10.9898 0.952148 10.7903C0.952148 10.5911 1.02507 10.4187 1.1709 10.2728L5.44382 5.99992L1.15632 1.71242C1.0202 1.57631 0.952148 1.40617 0.952148 1.202C0.952148 0.997835 1.02507 0.822835 1.1709 0.677002C1.31673 0.531169 1.4894 0.458252 1.6889 0.458252C1.88801 0.458252 2.06048 0.531169 2.20632 0.677002L7.10632 5.59159C7.16465 5.64992 7.20607 5.71311 7.23057 5.78117C7.25468 5.84922 7.26673 5.92214 7.26673 5.99992C7.26673 6.0777 7.25468 6.15061 7.23057 6.21867C7.20607 6.28672 7.16465 6.34992 7.10632 6.40825L2.19173 11.3228C2.05562 11.4589 1.88801 11.527 1.6889 11.527C1.4894 11.527 1.31673 11.4541 1.1709 11.3083Z" fill="#3C3C3C"/>
</svg>
