<svg width="13" height="10" viewBox="0 0 13 10" fill="none" xmlns="http://www.w3.org/2000/svg">
<path d="M7.475 8.95635C7.325 8.80635 7.253 8.6251 7.259 8.4126C7.2655 8.2001 7.34375 8.01885 7.49375 7.86885L9.6125 5.7501H1.25C1.0375 5.7501 0.85925 5.6781 0.71525 5.5341C0.57175 5.3906 0.5 5.2126 0.5 5.0001C0.5 4.7876 0.57175 4.60935 0.71525 4.46535C0.85925 4.32185 1.0375 4.2501 1.25 4.2501H9.6125L7.475 2.1126C7.325 1.9626 7.25 1.78435 7.25 1.57785C7.25 1.37185 7.325 1.19385 7.475 1.04385C7.625 0.893847 7.80325 0.818848 8.00975 0.818848C8.21575 0.818848 8.39375 0.893847 8.54375 1.04385L11.975 4.4751C12.05 4.5501 12.1033 4.63135 12.1348 4.71885C12.1658 4.80635 12.1813 4.9001 12.1813 5.0001C12.1813 5.1001 12.1658 5.19385 12.1348 5.28135C12.1033 5.36885 12.05 5.4501 11.975 5.5251L8.525 8.9751C8.3875 9.1126 8.21575 9.18135 8.00975 9.18135C7.80325 9.18135 7.625 9.10635 7.475 8.95635Z" fill="#00BDCD"/>
</svg>
