<svg width="14" height="14" viewBox="0 0 14 14" fill="none" xmlns="http://www.w3.org/2000/svg">
<g clip-path="url(#clip0_814_14)">
<path d="M5.39578 12.8337L5.16245 10.967C5.03606 10.9184 4.91706 10.86 4.80545 10.792C4.69345 10.7239 4.58398 10.651 4.47703 10.5732L2.74162 11.3024L1.13745 8.53158L2.63953 7.39408C2.62981 7.32602 2.62495 7.2603 2.62495 7.19691V6.80316C2.62495 6.74016 2.62981 6.67463 2.63953 6.60658L1.13745 5.46908L2.74162 2.69824L4.47703 3.42741C4.58398 3.34963 4.69578 3.27671 4.81245 3.20866C4.92912 3.1406 5.04578 3.08227 5.16245 3.03366L5.39578 1.16699H8.60412L8.83745 3.03366C8.96384 3.08227 9.08303 3.1406 9.19503 3.20866C9.30665 3.27671 9.41592 3.34963 9.52287 3.42741L11.2583 2.69824L12.8624 5.46908L11.3604 6.60658C11.3701 6.67463 11.375 6.74016 11.375 6.80316V7.19691C11.375 7.2603 11.3652 7.32602 11.3458 7.39408L12.8479 8.53158L11.2437 11.3024L9.52287 10.5732C9.41592 10.651 9.30412 10.7239 9.18745 10.792C9.07078 10.86 8.95412 10.9184 8.83745 10.967L8.60412 12.8337H5.39578ZM7.02912 9.04199C7.59301 9.04199 8.07426 8.84269 8.47287 8.44408C8.87148 8.04546 9.07078 7.56421 9.07078 7.00033C9.07078 6.43644 8.87148 5.95519 8.47287 5.55658C8.07426 5.15796 7.59301 4.95866 7.02912 4.95866C6.45551 4.95866 5.97173 5.15796 5.57778 5.55658C5.18423 5.95519 4.98745 6.43644 4.98745 7.00033C4.98745 7.56421 5.18423 8.04546 5.57778 8.44408C5.97173 8.84269 6.45551 9.04199 7.02912 9.04199ZM7.02912 7.87533C6.78606 7.87533 6.57956 7.79016 6.40962 7.61983C6.23928 7.44988 6.15412 7.24338 6.15412 7.00033C6.15412 6.75727 6.23928 6.55077 6.40962 6.38083C6.57956 6.21049 6.78606 6.12533 7.02912 6.12533C7.27217 6.12533 7.47887 6.21049 7.6492 6.38083C7.81915 6.55077 7.90412 6.75727 7.90412 7.00033C7.90412 7.24338 7.81915 7.44988 7.6492 7.61983C7.47887 7.79016 7.27217 7.87533 7.02912 7.87533ZM6.41662 11.667H7.5687L7.77287 10.1212C8.07426 10.0434 8.35387 9.92905 8.6117 9.77816C8.86915 9.62766 9.10481 9.44546 9.3187 9.23158L10.7625 9.82949L11.3312 8.83782L10.077 7.88991C10.1256 7.7538 10.1597 7.6103 10.1791 7.45941C10.1986 7.30891 10.2083 7.15588 10.2083 7.00033C10.2083 6.84477 10.1986 6.69155 10.1791 6.54066C10.1597 6.39016 10.1256 6.24685 10.077 6.11074L11.3312 5.16283L10.7625 4.17116L9.3187 4.78366C9.10481 4.56005 8.86915 4.3728 8.6117 4.22191C8.35387 4.07141 8.07426 3.95727 7.77287 3.87949L7.58328 2.33366H6.4312L6.22703 3.87949C5.92565 3.95727 5.64623 4.07141 5.38878 4.22191C5.13095 4.3728 4.89509 4.55519 4.6812 4.76908L3.23745 4.17116L2.6687 5.16283L3.92287 6.09616C3.87426 6.24199 3.84023 6.38783 3.82078 6.53366C3.80134 6.67949 3.79162 6.83505 3.79162 7.00033C3.79162 7.15588 3.80134 7.30658 3.82078 7.45241C3.84023 7.59824 3.87426 7.74408 3.92287 7.88991L2.6687 8.83782L3.23745 9.82949L4.6812 9.21699C4.89509 9.4406 5.13095 9.62766 5.38878 9.77816C5.64623 9.92905 5.92565 10.0434 6.22703 10.1212L6.41662 11.667Z" fill="#818181"/>
</g>
<defs>
<clipPath id="clip0_814_14">
<rect width="14" height="14" fill="white"/>
</clipPath>
</defs>
</svg>
