<svg width="200" height="200" viewBox="0 0 200 200" fill="none" xmlns="http://www.w3.org/2000/svg">
<path d="M150 183.333C143.056 183.333 137.153 180.903 132.292 176.041C127.431 171.18 125 165.278 125 158.333C125 157.361 125.069 156.353 125.208 155.308C125.347 154.264 125.556 153.328 125.833 152.5L67.0833 118.333C64.7222 120.416 62.0833 122.05 59.1667 123.233C56.25 124.417 53.1944 125.005 50 125C43.0556 125 37.1528 122.569 32.2917 117.708C27.4306 112.847 25 106.944 25 99.9998C25 93.0554 27.4306 87.1526 32.2917 82.2915C37.1528 77.4304 43.0556 74.9998 50 74.9998C53.1944 74.9998 56.25 75.5915 59.1667 76.7748C62.0833 77.9582 64.7222 79.5887 67.0833 81.6665L125.833 47.4998C125.556 46.6665 125.347 45.7304 125.208 44.6915C125.069 43.6526 125 42.6443 125 41.6665C125 34.7221 127.431 28.8193 132.292 23.9582C137.153 19.0971 143.056 16.6665 150 16.6665C156.944 16.6665 162.847 19.0971 167.708 23.9582C172.569 28.8193 175 34.7221 175 41.6665C175 48.6109 172.569 54.5137 167.708 59.3748C162.847 64.2359 156.944 66.6665 150 66.6665C146.806 66.6665 143.75 66.0776 140.833 64.8998C137.917 63.7221 135.278 62.0887 132.917 59.9998L74.1667 94.1665C74.4444 94.9998 74.6528 95.9387 74.7917 96.9832C74.9306 98.0276 75 99.0332 75 99.9998C75 100.972 74.9306 101.98 74.7917 103.025C74.6528 104.069 74.4444 105.005 74.1667 105.833L132.917 140C135.278 137.916 137.917 136.286 140.833 135.108C143.75 133.93 146.806 133.339 150 133.333C156.944 133.333 162.847 135.764 167.708 140.625C172.569 145.486 175 151.389 175 158.333C175 165.278 172.569 171.18 167.708 176.041C162.847 180.903 156.944 183.333 150 183.333Z" fill="#6E6E6E"/>
</svg>
