<svg width="12" height="12" viewBox="0 0 12 12" fill="none" xmlns="http://www.w3.org/2000/svg">
<path d="M1.5 4.5H10.5V3.75C10.5 3.55109 10.421 3.36032 10.2803 3.21967C10.1397 3.07902 9.94891 3 9.75 3H2.25C2.05109 3 1.86032 3.07902 1.71967 3.21967C1.57902 3.36032 1.5 3.55109 1.5 3.75V4.5ZM1.5 5.25V9C1.5 9.19891 1.57902 9.38968 1.71967 9.53033C1.86032 9.67098 2.05109 9.75 2.25 9.75H9.75C9.94891 9.75 10.1397 9.67098 10.2803 9.53033C10.421 9.38968 10.5 9.19891 10.5 9V5.25H1.5ZM2.25 2.25H9.75C10.1478 2.25 10.5294 2.40804 10.8107 2.68934C11.092 2.97064 11.25 3.35218 11.25 3.75V9C11.25 9.39782 11.092 9.77936 10.8107 10.0607C10.5294 10.342 10.1478 10.5 9.75 10.5H2.25C1.85218 10.5 1.47064 10.342 1.18934 10.0607C0.908035 9.77936 0.75 9.39782 0.75 9V3.75C0.75 3.35218 0.908035 2.97064 1.18934 2.68934C1.47064 2.40804 1.85218 2.25 2.25 2.25Z" fill="#B3B7CD"/>
<path d="M4.5 1.5V2.25H7.5V1.5H4.5ZM4.5 0.75H7.5C7.69891 0.75 7.88968 0.829018 8.03033 0.96967C8.17098 1.11032 8.25 1.30109 8.25 1.5V2.25C8.25 2.44891 8.17098 2.63968 8.03033 2.78033C7.88968 2.92098 7.69891 3 7.5 3H4.5C4.30109 3 4.11032 2.92098 3.96967 2.78033C3.82902 2.63968 3.75 2.44891 3.75 2.25V1.5C3.75 1.30109 3.82902 1.11032 3.96967 0.96967C4.11032 0.829018 4.30109 0.75 4.5 0.75Z" fill="#B3B7CD"/>
</svg>
