<svg width="13" height="16" viewBox="0 0 13 16" fill="none" xmlns="http://www.w3.org/2000/svg">
<path d="M1.5 0C1.30109 4.19176e-09 1.11032 0.0790175 0.96967 0.21967C0.829018 0.360322 0.75 0.551088 0.75 0.75C0.75 0.948912 0.829018 1.13968 0.96967 1.28033C1.11032 1.42098 1.30109 1.5 1.5 1.5H12C12.1989 1.5 12.3897 1.42098 12.5303 1.28033C12.671 1.13968 12.75 0.948912 12.75 0.75C12.75 0.551088 12.671 0.360322 12.5303 0.21967C12.3897 0.0790175 12.1989 4.19177e-09 12 0H1.5ZM7.496 15.35C7.4701 15.5382 7.37371 15.7097 7.2263 15.8296C7.07889 15.9495 6.89146 16.009 6.70188 15.996C6.5123 15.9831 6.3347 15.8986 6.20497 15.7598C6.07524 15.6209 6.00306 15.438 6.003 15.248V5.058L3.03 8.027L2.946 8.1C2.7938 8.21313 2.60439 8.26441 2.4159 8.2435C2.22741 8.22259 2.05384 8.13106 1.93013 7.98732C1.80642 7.84358 1.74176 7.65832 1.74915 7.46882C1.75655 7.27932 1.83546 7.09966 1.97 6.966L6.26 2.68C6.33488 2.61441 6.42232 2.56474 6.517 2.534L6.597 2.511C6.64664 2.50043 6.69725 2.49507 6.748 2.495L6.808 2.497L6.878 2.505L6.998 2.535L7.089 2.573L7.126 2.593L7.216 2.653L7.288 2.715L11.53 6.965L11.603 7.05C11.7096 7.19459 11.7607 7.37262 11.7472 7.55174C11.7336 7.73085 11.6562 7.89914 11.529 8.026L11.445 8.099C11.3004 8.20559 11.1224 8.25674 10.9433 8.24316C10.7642 8.22958 10.5959 8.15217 10.469 8.025L7.503 5.055V15.248L7.496 15.349V15.35Z" fill="#0067DF"/>
</svg>
