<svg width="200" height="200" viewBox="0 0 200 200" fill="none" xmlns="http://www.w3.org/2000/svg">
<path d="M96.2752 25.5336C97.3833 26.0229 98.3253 26.8238 98.9866 27.8387C99.6479 28.8536 100 30.0389 100 31.2502V168.75C100.001 169.962 99.6496 171.148 98.9887 172.163C98.3279 173.179 97.3861 173.98 96.278 174.47C95.1698 174.96 93.9432 175.118 92.7472 174.923C91.5513 174.729 90.4376 174.191 89.5418 173.375L45.5002 133.334H22.9168C19.0491 133.334 15.3398 131.797 12.6049 129.062C9.86995 126.327 8.3335 122.618 8.3335 118.75V81.2502C8.3335 73.2002 14.8668 66.6669 22.9168 66.6669H45.5002L89.5418 26.6252C90.4397 25.8137 91.5534 25.2796 92.7482 25.0874C93.9431 24.8951 95.1681 25.053 96.2752 25.5419V25.5336ZM87.5002 45.3752L52.1252 77.5419C50.9745 78.59 49.4733 79.1696 47.9168 79.1669H22.9168C22.3643 79.1669 21.8344 79.3864 21.4437 79.7771C21.053 80.1678 20.8335 80.6977 20.8335 81.2502V118.75C20.8335 119.9 21.7668 120.834 22.9168 120.834H47.9168C49.4752 120.834 50.9752 121.409 52.1252 122.459L87.5002 154.625V45.3752ZM155.983 35.1836C157.155 34.0131 158.744 33.3557 160.4 33.3557C162.056 33.3557 163.645 34.0131 164.817 35.1836C200.617 70.9836 200.617 129.017 164.817 164.817C163.632 165.921 162.065 166.522 160.446 166.493C158.827 166.465 157.282 165.809 156.137 164.664C154.992 163.519 154.336 161.974 154.307 160.355C154.278 158.735 154.879 157.168 155.983 155.984C163.336 148.632 169.168 139.904 173.148 130.299C177.127 120.693 179.175 110.397 179.175 100C179.175 89.6029 177.127 79.3075 173.148 69.7018C169.168 60.0961 163.336 51.3683 155.983 44.0169C154.813 42.845 154.156 41.2565 154.156 39.6002C154.156 37.944 154.813 36.3554 155.983 35.1836Z" fill="#6E6E6E"/>
<path d="M135.358 64.6417C134.778 64.0612 134.089 63.6006 133.33 63.2865C132.572 62.9723 131.759 62.8105 130.938 62.8105C130.117 62.8105 129.304 62.9723 128.545 63.2865C127.786 63.6006 127.097 64.0612 126.517 64.6417C125.936 65.2223 125.476 65.9115 125.161 66.67C124.847 67.4285 124.686 68.2415 124.686 69.0626C124.686 69.8836 124.847 70.6966 125.161 71.4551C125.476 72.2136 125.936 72.9028 126.517 73.4834C129.999 76.9656 132.761 81.0996 134.646 85.6493C136.53 90.1991 137.5 95.0754 137.5 100C137.5 104.925 136.53 109.801 134.646 114.351C132.761 118.901 129.999 123.035 126.517 126.517C125.413 127.702 124.812 129.269 124.84 130.888C124.869 132.507 125.525 134.052 126.67 135.197C127.815 136.342 129.36 136.998 130.979 137.026C132.598 137.055 134.165 136.454 135.35 135.35C144.726 125.973 149.994 113.256 149.994 99.9959C149.994 86.7356 144.734 74.0184 135.358 64.6417Z" fill="#6E6E6E"/>
</svg>
