<svg width="200" height="200" viewBox="0 0 200 200" fill="none" xmlns="http://www.w3.org/2000/svg">
<g clip-path="url(#clip0_4031_410)">
<path d="M20.0558 35.6112L51.0558 66.6667H22.2224C19.2756 66.6667 16.4494 67.8374 14.3657 69.9211C12.282 72.0048 11.1113 74.831 11.1113 77.7778V122.222C11.1113 125.169 12.282 127.995 14.3657 130.079C16.4494 132.163 19.2756 133.333 22.2224 133.333H50.778L91.9447 174.833C93.0253 175.833 94.294 176.609 95.6769 177.114C97.0598 177.62 98.5294 177.845 100 177.778C101.448 177.778 102.883 177.495 104.222 176.944C106.26 176.107 108.003 174.683 109.23 172.853C110.456 171.023 111.111 168.87 111.111 166.667V126.5L143.834 159.222C142.445 160.056 141.111 160.833 139.667 161.556C138.348 162.219 137.347 163.378 136.883 164.78C136.42 166.181 136.532 167.709 137.195 169.028C137.858 170.347 139.017 171.348 140.419 171.811C141.82 172.275 143.348 172.163 144.667 171.5C147.164 170.239 149.593 168.849 151.945 167.333L164.611 180L172.222 172.222L27.778 27.7778L20.0558 35.6112ZM100 166.667L57.0558 123.5C55.9551 122.581 54.5418 122.123 53.1113 122.222H22.2224V77.7778H53.5558C54.2908 77.7748 55.0179 77.6259 55.695 77.3398C56.3721 77.0537 56.9857 76.6361 57.5002 76.1112L58.9447 74.6667L100 115.611V166.667Z" fill="#6E6E6E"/>
<path d="M138.278 37.1667C147.961 41.6893 156.461 48.3995 163.108 56.768C169.755 65.1366 174.367 74.9348 176.581 85.3901C178.795 95.8455 178.55 106.672 175.865 117.017C173.181 127.361 168.13 136.941 161.111 145L169 152.889C177.286 143.57 183.282 132.445 186.51 120.4C189.739 108.354 190.111 95.722 187.597 83.5078C185.083 71.2937 179.752 59.835 172.029 50.0442C164.306 40.2533 154.404 32.4006 143.111 27.1111C142.452 26.7695 141.731 26.5635 140.99 26.5054C140.25 26.4472 139.505 26.538 138.801 26.7725C138.096 27.007 137.446 27.3803 136.888 27.8705C136.33 28.3606 135.876 28.9576 135.553 29.6262C135.23 30.2948 135.044 31.0214 135.007 31.763C134.969 32.5047 135.081 33.2463 135.335 33.9441C135.589 34.6419 135.98 35.2817 136.485 35.8256C136.991 36.3696 137.6 36.8067 138.278 37.1111V37.1667Z" fill="#6E6E6E"/>
<path d="M126.056 70.1111C131.285 73.1621 135.628 77.5232 138.658 82.7644C141.688 88.0057 143.299 93.9461 143.333 99.9999C143.334 107.436 140.916 114.67 136.445 120.611L144.445 128.5C150.942 120.425 154.472 110.364 154.445 99.9999C154.408 92.0041 152.289 84.1559 148.294 77.2291C144.3 70.3024 138.569 64.5364 131.667 60.4999C131.035 60.098 130.327 59.8281 129.588 59.7065C128.849 59.5849 128.092 59.6141 127.365 59.7923C126.637 59.9706 125.953 60.2942 125.353 60.7438C124.754 61.1933 124.252 61.7594 123.877 62.4081C123.502 63.0568 123.262 63.7747 123.171 64.5185C123.081 65.2623 123.142 66.0167 123.351 66.7363C123.56 67.4559 123.912 68.1258 124.386 68.7058C124.861 69.2857 125.447 69.7638 126.111 70.1111H126.056Z" fill="#6E6E6E"/>
<path d="M99.9998 33.3334V84.1667L111.111 95.2778V33.3334C111.113 31.1312 110.46 28.9781 109.236 27.1476C108.012 25.317 106.271 23.8915 104.235 23.0522C102.199 22.2128 99.9595 21.9973 97.8008 22.4332C95.6422 22.869 93.6617 23.9365 92.1109 25.5L66.6665 50.9445L74.4998 58.7778L99.9998 33.3334Z" fill="#6E6E6E"/>
</g>
<defs>
<clipPath id="clip0_4031_410">
<rect width="200" height="200" fill="white"/>
</clipPath>
</defs>
</svg>
