<svg width="12" height="8" viewBox="0 0 12 8" fill="none" xmlns="http://www.w3.org/2000/svg">
<path d="M0.691381 1.16992C0.837214 1.02409 1.00988 0.951172 1.20938 0.951172C1.40849 0.951172 1.58096 1.02409 1.7268 1.16992L5.99971 5.44284L10.2872 1.15534C10.4233 1.01923 10.5935 0.951172 10.7976 0.951172C11.0018 0.951172 11.1768 1.02409 11.3226 1.16992C11.4685 1.31576 11.5414 1.48842 11.5414 1.68792C11.5414 1.88703 11.4685 2.05951 11.3226 2.20534L6.40805 7.10534C6.34971 7.16367 6.28652 7.20509 6.21846 7.22959C6.15041 7.2537 6.07749 7.26576 5.99971 7.26576C5.92194 7.26576 5.84902 7.2537 5.78096 7.22959C5.71291 7.20509 5.64971 7.16367 5.59138 7.10534L0.676798 2.19075C0.540687 2.05464 0.472631 1.88703 0.472631 1.68792C0.472631 1.48842 0.545547 1.31576 0.691381 1.16992Z" fill="white"/>
</svg>
