<svg width="20" height="20" viewBox="0 0 20 20" fill="none" xmlns="http://www.w3.org/2000/svg">
<g clip-path="url(#clip0_4897_757)">
<path d="M13.3333 11.6663H14.5833V14.0163L16.6166 15.1913L15.9916 16.2747L13.3333 14.7413V11.6663ZM14.1666 9.99967C13.0615 9.99967 12.0017 10.4387 11.2203 11.2201C10.4389 12.0015 9.99992 13.0613 9.99992 14.1663C9.99992 15.2714 10.4389 16.3312 11.2203 17.1126C12.0017 17.894 13.0615 18.333 14.1666 18.333C15.2717 18.333 16.3315 17.894 17.1129 17.1126C17.8943 16.3312 18.3333 15.2714 18.3333 14.1663C18.3333 13.0613 17.8943 12.0015 17.1129 11.2201C16.3315 10.4387 15.2717 9.99967 14.1666 9.99967ZM14.1666 8.33301C15.7137 8.33301 17.1974 8.94759 18.2914 10.0416C19.3853 11.1355 19.9999 12.6192 19.9999 14.1663C19.9999 15.7134 19.3853 17.1972 18.2914 18.2911C17.1974 19.3851 15.7137 19.9997 14.1666 19.9997C11.8416 19.9997 9.83325 18.633 8.89159 16.6663H0.833252V14.1663C0.833252 11.9497 5.27492 10.833 7.49992 10.833C7.99992 10.833 8.61659 10.8913 9.26659 10.9997C9.79515 10.1808 10.5207 9.50768 11.3767 9.04181C12.2328 8.57593 13.192 8.33223 14.1666 8.33301ZM8.33325 14.1663C8.33325 13.583 8.41659 13.0163 8.57492 12.4997C8.22492 12.4413 7.85825 12.4163 7.49992 12.4163C5.02492 12.4163 2.41659 13.633 2.41659 14.1663V15.083H8.40825C8.35812 14.78 8.33304 14.4734 8.33325 14.1663ZM7.49992 3.33301C8.38397 3.33301 9.23182 3.6842 9.85694 4.30932C10.4821 4.93444 10.8333 5.78229 10.8333 6.66634C10.8333 7.5504 10.4821 8.39824 9.85694 9.02336C9.23182 9.64849 8.38397 9.99967 7.49992 9.99967C6.61586 9.99967 5.76802 9.64849 5.1429 9.02336C4.51777 8.39824 4.16659 7.5504 4.16659 6.66634C4.16659 5.78229 4.51777 4.93444 5.1429 4.30932C5.76802 3.6842 6.61586 3.33301 7.49992 3.33301ZM7.49992 4.91634C7.03579 4.91634 6.59067 5.10072 6.26248 5.4289C5.93429 5.75709 5.74992 6.20221 5.74992 6.66634C5.74992 7.13047 5.93429 7.57559 6.26248 7.90378C6.59067 8.23197 7.03579 8.41634 7.49992 8.41634C7.96405 8.41634 8.40917 8.23197 8.73736 7.90378C9.06555 7.57559 9.24992 7.13047 9.24992 6.66634C9.24992 6.20221 9.06555 5.75709 8.73736 5.4289C8.40917 5.10072 7.96405 4.91634 7.49992 4.91634Z" fill="#ED7F04"/>
</g>
<defs>
<clipPath id="clip0_4897_757">
<rect width="20" height="20" fill="white"/>
</clipPath>
</defs>
</svg>
